<?xml version="1.0" encoding="UTF-8" standalone="no"?>
<!-- Generator: Adobe Illustrator 16.0.0, SVG Export Plug-In . SVG Version: 6.00 Build 0)  -->

<svg
   xmlns:dc="http://purl.org/dc/elements/1.1/"
   xmlns:cc="http://creativecommons.org/ns#"
   xmlns:rdf="http://www.w3.org/1999/02/22-rdf-syntax-ns#"
   xmlns:svg="http://www.w3.org/2000/svg"
   xmlns="http://www.w3.org/2000/svg"
   xmlns:sodipodi="http://sodipodi.sourceforge.net/DTD/sodipodi-0.dtd"
   xmlns:inkscape="http://www.inkscape.org/namespaces/inkscape"
   version="1.1"
   id="Layer_1"
   x="0px"
   y="0px"
   width="133.77"
   height="131.55901"
   viewBox="0 0 133.77 131.55901"
   enable-background="new 0 0 640 480"
   xml:space="preserve"
   inkscape:version="0.48.4 r9939"
   sodipodi:docname="con_quorum_ico.svg"><metadata
     id="metadata59"><rdf:RDF><cc:Work
         rdf:about=""><dc:format>image/svg+xml</dc:format><dc:type
           rdf:resource="http://purl.org/dc/dcmitype/StillImage" /></cc:Work></rdf:RDF></metadata><defs
     id="defs57" /><sodipodi:namedview
     pagecolor="#ffffff"
     bordercolor="#666666"
     borderopacity="1"
     objecttolerance="10"
     gridtolerance="10"
     guidetolerance="10"
     inkscape:pageopacity="0"
     inkscape:pageshadow="2"
     inkscape:window-width="1215"
     inkscape:window-height="776"
     id="namedview55"
     showgrid="false"
     fit-margin-top="0"
     fit-margin-left="0"
     fit-margin-right="0"
     fit-margin-bottom="0"
     inkscape:zoom="0.49166667"
     inkscape:cx="67.082"
     inkscape:cy="64.167"
     inkscape:window-x="65"
     inkscape:window-y="24"
     inkscape:window-maximized="1"
     inkscape:current-layer="Layer_1" /><g
     id="g3"
     transform="translate(-252.918,-172.608)"><g
       id="g5"><path
         clip-rule="evenodd"
         d="m 359.978,194.775 c 1.864,3.684 2.676,7.586 2.588,11.666 -0.219,8.836 -4.057,16.006 -10.768,21.751 -0.965,0.812 -1.315,1.622 -1.228,2.873 0.351,4.582 0.878,9.12 2.873,13.353 0.066,0.131 0.066,0.284 0.11,0.417 -0.439,0.241 -0.768,-0.044 -1.097,-0.176 -5,-1.754 -9.759,-3.99 -14.101,-7.016 -0.701,-0.483 -1.316,-0.614 -2.193,-0.373 -4.254,1.139 -8.552,2.061 -12.982,2.323 -6.294,0.374 -12.478,-0.329 -18.508,-2.061 -1.624,-0.46 -2.852,-0.306 -4.277,0.659 -4.451,3.003 -9.297,5.195 -14.518,6.622 -0.241,0.065 -0.526,0.306 -0.723,0.022 -0.198,-0.241 0.021,-0.504 0.153,-0.702 0.417,-0.79 0.833,-1.601 1.316,-2.347 2.215,-3.486 3.092,-7.323 3.29,-11.357 0.044,-0.615 -0.219,-0.987 -0.636,-1.359 -1.711,-1.535 -3.509,-2.982 -5.088,-4.648 -5.021,-5.351 -7.324,-11.775 -7.148,-19.011 0.219,-8.507 4.057,-15.392 10.307,-21.07 7.104,-6.469 15.679,-9.955 25.24,-11.227 8.552,-1.141 16.908,-0.329 25.043,2.544 0.46,0.175 0.965,0.262 1.338,0.592 -0.592,0.482 -1.14,0.021 -1.711,-0.11 -0.351,-0.088 -0.724,-0.35 -0.943,0.176 -0.262,0.636 -0.833,0.659 -1.425,0.701 -1.206,0.088 -2.434,-0.13 -3.596,0.374 -1.207,0.087 -2.325,-0.352 -3.509,-0.439 -0.592,-0.22 -1.251,-0.088 -1.864,-0.241 -0.724,-0.22 -1.492,-0.087 -2.259,-0.132 -0.306,0 -0.635,-0.022 -0.965,-0.088 -1.271,-0.241 -2.543,-0.153 -3.838,0.022 -0.438,0.087 -0.898,0.066 -1.358,0.066 -1.667,-0.043 -3.29,0.351 -4.913,0.636 -1.36,0.153 -2.697,0.526 -4.013,0.898 -0.438,0.11 -0.877,0.286 -1.316,0.396 -0.548,0.043 -1.074,0.241 -1.579,0.46 -1.316,0.372 -2.521,0.964 -3.772,1.513 -0.35,0.11 -0.68,0.22 -0.986,0.439 -0.176,0.109 -0.351,0.22 -0.548,0.285 -0.877,0.329 -1.711,0.745 -2.5,1.272 -0.833,0.395 -1.601,0.899 -2.369,1.425 -1.908,1.184 -3.662,2.565 -5.526,4.122 0.812,0.374 1.513,0.219 2.149,0.286 4.21,0.46 8.443,0.898 12.588,1.71 0.306,0.066 0.613,0.043 0.898,0.088 2.61,0.482 5.176,1.052 7.719,1.797 l 0.33,0.088 c 0.942,0.351 1.93,0.527 2.851,0.855 l 0.768,0.263 c 0.46,0.153 0.921,0.308 1.381,0.438 0.68,0.242 1.36,0.439 2.04,0.68 4.364,1.624 8.553,3.64 12.478,6.118 0.812,0.526 1.798,0.876 2.214,1.842 -0.132,0.833 -0.768,1.337 -1.228,1.951 -0.921,1.184 -0.833,2.609 0.219,3.201 0.483,0.263 1.009,0.46 1.58,0.592 2.017,0.066 4.057,-0.065 6.074,0.088 1.141,0.482 1.82,1.447 2.522,2.391 1.536,1.885 2.741,3.968 3.925,6.072 0.768,1.579 1.404,3.202 1.886,4.868 0.197,0.724 0.439,0.745 0.943,0.241 0.657,-0.657 1.228,-1.402 1.754,-2.17 0.066,-0.131 0.176,-0.241 0.285,-0.351 0.33,-0.241 0.527,-0.569 0.659,-0.943 0.438,-0.591 0.942,-1.162 1.206,-1.885 0.308,-0.592 0.68,-1.162 0.833,-1.842 0.396,-0.965 0.987,-1.864 1.163,-2.917 0.373,-1.403 0.833,-2.806 0.789,-4.276 0.154,-1.359 0.483,-2.718 0.132,-4.078 -0.065,-0.373 -0.088,-0.724 0.088,-1.052 0.504,-0.241 0.329,-0.68 0.351,-1.052 0.088,-1.447 0,-2.895 0.132,-4.319 0.065,-0.636 0.153,-1.185 1.009,-1.229 0.415,-0.025 -0.221,-0.594 0.261,-0.705 z"
         id="path7"
         inkscape:connector-curvature="0"
         style="fill:#ffffff;fill-rule:evenodd" /><path
         clip-rule="evenodd"
         d="m 283.839,205.037 c 0,-17.914 17.609,-32.429 39.363,-32.429 21.732,0 39.364,14.516 39.364,32.429 0,17.914 -17.631,32.451 -39.364,32.451 -21.754,0 -39.363,-14.537 -39.363,-32.451 z"
         id="path9"
         inkscape:connector-curvature="0"
         style="fill:#ffffff;fill-rule:evenodd" /></g><path
       clip-rule="evenodd"
       d="m 283.839,205.037 c 0,-17.914 17.609,-32.429 39.363,-32.429 21.732,0 39.364,14.516 39.364,32.429 0,17.914 -17.631,32.451 -39.364,32.451 -21.754,0 -39.363,-14.537 -39.363,-32.451 z"
       id="path11"
       inkscape:connector-curvature="0"
       style="fill:#ffffff;fill-rule:evenodd" /></g><g
     id="g13"
     transform="translate(-252.918,-172.608)"><g
       id="g15"><path
         clip-rule="evenodd"
         d="m 255.418,277.746 c 0,-1.316 1.118,-2.391 2.5,-2.391 h 5.022 c 1.382,0 2.5,1.075 2.5,2.391 v 24.008 c 0,1.337 -1.118,2.413 -2.5,2.413 h -5.022 c -1.381,0 -2.5,-1.075 -2.5,-2.413 v -24.008 z"
         id="path17"
         inkscape:connector-curvature="0"
         style="fill:#ffffff;fill-rule:evenodd" /></g><path
       clip-rule="evenodd"
       d="m 252.918,260.95 c 0,-3.991 3.354,-7.214 7.5,-7.214 4.167,0 7.522,3.224 7.522,7.214 0,3.968 -3.356,7.191 -7.522,7.191 -4.146,10e-4 -7.5,-3.223 -7.5,-7.191 z"
       id="path19"
       inkscape:connector-curvature="0"
       style="fill:#ffffff;fill-rule:evenodd" /><g
       id="g21"><path
         clip-rule="evenodd"
         d="m 277.961,277.746 c 0,-1.316 1.119,-2.391 2.5,-2.391 h 5 c 1.382,0 2.5,1.075 2.5,2.391 v 24.008 c 0,1.337 -1.118,2.413 -2.5,2.413 h -5 c -1.381,0 -2.5,-1.075 -2.5,-2.413 v -24.008 z"
         id="path23"
         inkscape:connector-curvature="0"
         style="fill:#ffffff;fill-rule:evenodd" /></g><path
       clip-rule="evenodd"
       d="m 275.439,260.95 c 0,-3.991 3.377,-7.214 7.522,-7.214 4.144,0 7.5,3.224 7.5,7.214 0,3.968 -3.356,7.191 -7.5,7.191 -4.144,10e-4 -7.522,-3.223 -7.522,-7.191 z"
       id="path25"
       inkscape:connector-curvature="0"
       style="fill:#ffffff;fill-rule:evenodd" /><g
       id="g27"><path
         clip-rule="evenodd"
         d="m 302.369,277.746 c 0,-1.316 1.119,-2.391 2.5,-2.391 h 5 c 1.381,0 2.5,1.075 2.5,2.391 v 24.008 c 0,1.337 -1.118,2.413 -2.5,2.413 h -5 c -1.381,0 -2.5,-1.075 -2.5,-2.413 v -24.008 z"
         id="path29"
         inkscape:connector-curvature="0"
         style="fill:#ffffff;fill-rule:evenodd" /></g><path
       clip-rule="evenodd"
       d="m 299.847,260.95 c 0,-3.991 3.377,-7.214 7.522,-7.214 4.145,0 7.5,3.224 7.5,7.214 0,3.968 -3.354,7.191 -7.5,7.191 -4.146,0 -7.522,-3.223 -7.522,-7.191 z"
       id="path31"
       inkscape:connector-curvature="0"
       style="fill:#ffffff;fill-rule:evenodd" /><g
       id="g33"><path
         clip-rule="evenodd"
         d="m 324.89,277.746 c 0,-1.316 1.119,-2.391 2.5,-2.391 h 5 c 1.381,0 2.499,1.075 2.499,2.391 v 24.008 c 0,1.337 -1.118,2.413 -2.499,2.413 h -5 c -1.381,0 -2.5,-1.075 -2.5,-2.413 v -24.008 z"
         id="path35"
         inkscape:connector-curvature="0"
         style="fill:#ffffff;fill-rule:evenodd" /></g><path
       clip-rule="evenodd"
       d="m 322.391,260.95 c 0,-3.991 3.354,-7.214 7.5,-7.214 4.146,0 7.521,3.224 7.521,7.214 0,3.968 -3.376,7.191 -7.521,7.191 -4.145,0 -7.5,-3.223 -7.5,-7.191 z"
       id="path37"
       inkscape:connector-curvature="0"
       style="fill:#ffffff;fill-rule:evenodd" /><g
       id="g39"><path
         clip-rule="evenodd"
         d="m 351.645,277.746 c 0,-1.316 1.118,-2.391 2.5,-2.391 h 5 c 1.381,0 2.5,1.075 2.5,2.391 v 24.008 c 0,1.337 -1.119,2.413 -2.5,2.413 h -5 c -1.382,0 -2.5,-1.075 -2.5,-2.413 v -24.008 z"
         id="path41"
         inkscape:connector-curvature="0"
         style="fill:#ffffff;fill-rule:evenodd" /></g><path
       clip-rule="evenodd"
       d="m 349.145,260.95 c 0,-3.991 3.355,-7.214 7.5,-7.214 4.145,0 7.522,3.224 7.522,7.214 0,3.968 -3.377,7.191 -7.522,7.191 -4.145,10e-4 -7.5,-3.223 -7.5,-7.191 z"
       id="path43"
       inkscape:connector-curvature="0"
       style="fill:#ffffff;fill-rule:evenodd" /><g
       id="g45"><path
         clip-rule="evenodd"
         d="m 374.167,277.746 c 0,-1.316 1.118,-2.391 2.5,-2.391 h 5.022 c 1.381,0 2.499,1.075 2.499,2.391 v 24.008 c 0,1.337 -1.118,2.413 -2.499,2.413 h -5.022 c -1.382,0 -2.5,-1.075 -2.5,-2.413 v -24.008 z"
         id="path47"
         inkscape:connector-curvature="0"
         style="fill:#ffffff;fill-rule:evenodd" /></g><path
       clip-rule="evenodd"
       d="m 371.666,260.95 c 0,-3.991 3.356,-7.214 7.522,-7.214 4.145,0 7.5,3.224 7.5,7.214 0,3.968 -3.354,7.191 -7.5,7.191 -4.166,10e-4 -7.522,-3.223 -7.522,-7.191 z"
       id="path49"
       inkscape:connector-curvature="0"
       style="fill:#ffffff;fill-rule:evenodd" /></g><g
     id="g51"
     transform="translate(-252.918,-172.608)"><path
       clip-rule="evenodd"
       d="m 342.478,195.434 c 0,-0.768 -0.306,-1.535 -0.854,-2.104 l -4.167,-4.188 c -0.548,-0.548 -1.315,-0.833 -2.083,-0.833 -0.768,0 -1.536,0.285 -2.083,0.833 l -20.131,20.238 -9.035,-9.078 c -0.548,-0.548 -1.316,-0.854 -2.084,-0.854 -0.768,0 -1.534,0.306 -2.083,0.854 l -4.167,4.188 c -0.548,0.548 -0.854,1.316 -0.854,2.104 0,0.768 0.306,1.536 0.854,2.083 l 11.097,11.161 4.189,4.188 c 0.548,0.548 1.316,0.854 2.083,0.854 0.767,0 1.535,-0.306 2.083,-0.854 l 4.167,-4.188 22.215,-22.322 c 0.546,-0.548 0.853,-1.316 0.853,-2.082 z"
       id="path53"
       inkscape:connector-curvature="0"
       style="fill:#00b285;fill-rule:evenodd" /></g></svg>