<?xml version="1.0" encoding="UTF-8" standalone="no"?>
<!-- Generator: Adobe Illustrator 16.0.0, SVG Export Plug-In . SVG Version: 6.00 Build 0)  -->

<svg
   xmlns:dc="http://purl.org/dc/elements/1.1/"
   xmlns:cc="http://creativecommons.org/ns#"
   xmlns:rdf="http://www.w3.org/1999/02/22-rdf-syntax-ns#"
   xmlns:svg="http://www.w3.org/2000/svg"
   xmlns="http://www.w3.org/2000/svg"
   xmlns:sodipodi="http://sodipodi.sourceforge.net/DTD/sodipodi-0.dtd"
   xmlns:inkscape="http://www.inkscape.org/namespaces/inkscape"
   version="1.1"
   id="Layer_1"
   x="0px"
   y="0px"
   width="95.999657"
   height="82.001587"
   viewBox="0 0 95.999657 82.001587"
   enable-background="new 0 0 640 480"
   xml:space="preserve"
   inkscape:version="0.48.4 r9939"
   sodipodi:docname="winwin_ico.svg"><metadata
     id="metadata3113"><rdf:RDF><cc:Work
         rdf:about=""><dc:format>image/svg+xml</dc:format><dc:type
           rdf:resource="http://purl.org/dc/dcmitype/StillImage" /><dc:title></dc:title></cc:Work></rdf:RDF></metadata><defs
     id="defs3111" /><sodipodi:namedview
     pagecolor="#ffffff"
     bordercolor="#666666"
     borderopacity="1"
     objecttolerance="10"
     gridtolerance="10"
     guidetolerance="10"
     inkscape:pageopacity="0"
     inkscape:pageshadow="2"
     inkscape:window-width="1215"
     inkscape:window-height="776"
     id="namedview3109"
     showgrid="false"
     fit-margin-top="0"
     fit-margin-left="0"
     fit-margin-right="0"
     fit-margin-bottom="0"
     inkscape:zoom="0.49166667"
     inkscape:cx="60.701571"
     inkscape:cy="31.964333"
     inkscape:window-x="65"
     inkscape:window-y="24"
     inkscape:window-maximized="1"
     inkscape:current-layer="Layer_1" /><g
     id="g3093"
     transform="translate(-259.29843,-189.96275)"><g
       id="g3095"><g
         id="g3097"><path
           clip-rule="evenodd"
           d="m 352.394,215.077 c 2.083,4.168 2.988,8.61 2.898,13.239 -0.235,10.01 -4.546,18.125 -12.1,24.633 -1.068,0.923 -1.467,1.845 -1.358,3.246 0.38,5.21 0.978,10.353 3.225,15.153 0.054,0.137 0.072,0.307 0.108,0.478 -0.489,0.256 -0.852,-0.068 -1.232,-0.205 -5.597,-1.999 -10.94,-4.527 -15.813,-7.943 -0.779,-0.564 -1.485,-0.7 -2.482,-0.444 -4.763,1.281 -9.6,2.34 -14.563,2.631 -7.064,0.444 -14.001,-0.359 -20.757,-2.324 -1.848,-0.53 -3.206,-0.341 -4.817,0.751 -4.981,3.4 -10.434,5.877 -16.302,7.483 -0.253,0.068 -0.562,0.358 -0.815,0.051 -0.199,-0.273 0.037,-0.581 0.182,-0.82 0.47,-0.889 0.942,-1.793 1.485,-2.647 2.5,-3.946 3.46,-8.303 3.695,-12.881 0.036,-0.667 -0.254,-1.093 -0.725,-1.521 -1.92,-1.743 -3.93,-3.382 -5.688,-5.278 -5.652,-6.065 -8.241,-13.342 -8.024,-21.525 0.236,-9.651 4.528,-17.459 11.538,-23.899 8.006,-7.345 17.624,-11.274 28.347,-12.726 9.601,-1.299 18.982,-0.376 28.112,2.903 0.508,0.188 1.087,0.274 1.503,0.667 -0.688,0.53 -1.286,0 -1.92,-0.137 -0.398,-0.085 -0.814,-0.393 -1.068,0.205 -0.29,0.718 -0.942,0.752 -1.594,0.803 -1.341,0.085 -2.736,-0.154 -4.04,0.41 -1.341,0.12 -2.608,-0.393 -3.93,-0.495 -0.67,-0.256 -1.395,-0.103 -2.084,-0.256 -0.833,-0.273 -1.702,-0.119 -2.536,-0.153 -0.38,-0.018 -0.742,-0.018 -1.087,-0.103 -1.449,-0.274 -2.879,-0.188 -4.311,0.017 -0.507,0.086 -1.015,0.068 -1.54,0.086 -1.866,-0.068 -3.677,0.393 -5.488,0.717 -1.557,0.153 -3.043,0.581 -4.528,1.008 -0.489,0.137 -0.978,0.324 -1.485,0.444 -0.616,0.051 -1.196,0.291 -1.757,0.53 -1.467,0.427 -2.843,1.093 -4.238,1.708 -0.38,0.136 -0.76,0.256 -1.105,0.495 -0.199,0.12 -0.398,0.24 -0.615,0.326 -0.996,0.375 -1.92,0.854 -2.808,1.451 -0.942,0.427 -1.811,1.008 -2.663,1.606 -2.138,1.349 -4.112,2.921 -6.195,4.68 0.923,0.427 1.685,0.256 2.409,0.325 4.728,0.513 9.473,1.008 14.128,1.93 0.344,0.068 0.688,0.052 1.015,0.086 2.916,0.564 5.814,1.213 8.658,2.033 0.126,0.034 0.253,0.068 0.38,0.103 1.05,0.41 2.155,0.598 3.188,0.991 l 0.87,0.29 c 0.507,0.188 1.032,0.341 1.557,0.496 0.743,0.29 1.522,0.512 2.283,0.768 4.909,1.845 9.6,4.134 14.02,6.954 0.888,0.563 1.992,0.973 2.464,2.067 -0.145,0.939 -0.852,1.52 -1.377,2.204 -1.051,1.35 -0.942,2.955 0.253,3.621 0.543,0.308 1.141,0.547 1.757,0.701 2.283,0.068 4.564,-0.085 6.829,0.068 1.287,0.564 2.029,1.657 2.826,2.716 1.721,2.135 3.08,4.51 4.402,6.901 0.887,1.777 1.594,3.605 2.138,5.518 0.217,0.803 0.489,0.837 1.05,0.273 0.743,-0.751 1.377,-1.589 1.957,-2.478 0.091,-0.136 0.217,-0.272 0.344,-0.393 0.363,-0.256 0.58,-0.631 0.725,-1.059 0.507,-0.684 1.068,-1.315 1.359,-2.135 0.344,-0.684 0.76,-1.333 0.923,-2.101 0.453,-1.094 1.104,-2.102 1.304,-3.297 0.417,-1.589 0.96,-3.177 0.906,-4.852 0.163,-1.538 0.525,-3.075 0.126,-4.629 -0.072,-0.394 -0.109,-0.803 0.109,-1.179 0.562,-0.256 0.362,-0.769 0.38,-1.195 0.109,-1.64 0,-3.263 0.163,-4.903 0.073,-0.701 0.164,-1.332 1.123,-1.384 0.47,-0.036 -0.237,-0.685 0.306,-0.804 z"
           id="path3099"
           inkscape:connector-curvature="0"
           style="fill:#ea6923;fill-rule:evenodd" /><path
           clip-rule="evenodd"
           d="m 266.918,226.728 c 0,-20.312 19.78,-36.763 44.178,-36.763 24.417,0 44.196,16.451 44.196,36.763 0,20.294 -19.779,36.745 -44.196,36.745 -24.398,-0.001 -44.178,-16.452 -44.178,-36.745 z"
           id="path3101"
           inkscape:connector-curvature="0"
           style="fill:#ea6923;fill-rule:evenodd" /></g><path
         clip-rule="evenodd"
         d="m 266.918,226.728 c 0,-20.312 19.78,-36.763 44.178,-36.763 24.417,0 44.196,16.451 44.196,36.763 0,20.294 -19.779,36.745 -44.196,36.745 -24.398,-0.001 -44.178,-16.452 -44.178,-36.745 z"
         id="path3103"
         inkscape:connector-curvature="0"
         style="fill:#ea6923;fill-rule:evenodd" /></g></g><g
     id="g3105"
     transform="translate(-259.29843,-189.96275)"><path
       clip-rule="evenodd"
       d="m 291.226,247.005 c 0.833,0.7 1.938,1.042 3.278,1.042 1.213,0 2.283,-0.325 3.188,-0.957 0.906,-0.649 1.539,-1.469 1.848,-2.494 l 5.904,-18.228 h 0.09 l 5.887,18.228 c 0.309,1.025 0.942,1.845 1.848,2.494 0.905,0.632 1.975,0.957 3.188,0.957 1.34,0 2.446,-0.342 3.315,-1.042 0.851,-0.701 1.413,-1.555 1.703,-2.614 l 6.448,-25.812 c 0.109,-0.529 0.199,-1.042 0.199,-1.571 0,-0.803 -0.344,-1.521 -0.996,-2.169 -0.67,-0.632 -1.522,-0.957 -2.59,-0.957 -1.196,0 -2.138,0.291 -2.753,0.889 -0.652,0.581 -1.104,1.4 -1.322,2.528 l -4.311,20.175 h -0.091 l -6.593,-20.824 c -0.272,-0.854 -0.779,-1.521 -1.522,-2.016 -0.742,-0.478 -1.558,-0.751 -2.463,-0.751 -0.942,0 -1.757,0.274 -2.463,0.751 -0.707,0.496 -1.213,1.162 -1.503,2.016 l -6.594,20.824 h -0.072 l -4.347,-20.175 c -0.507,-2.272 -1.865,-3.417 -4.039,-3.417 -1.068,0 -1.92,0.325 -2.608,0.957 -0.67,0.649 -1.014,1.366 -1.014,2.169 0,0.564 0.054,1.093 0.235,1.571 l 6.449,25.812 c 0.252,1.059 0.814,1.913 1.701,2.614 z"
       id="path3107"
       inkscape:connector-curvature="0"
       style="fill:#fcfcfc;fill-rule:evenodd" /></g></svg>