<?xml version="1.0" encoding="UTF-8" standalone="no"?>
<!-- Generator: Adobe Illustrator 16.0.0, SVG Export Plug-In . SVG Version: 6.00 Build 0)  -->

<svg
   xmlns:dc="http://purl.org/dc/elements/1.1/"
   xmlns:cc="http://creativecommons.org/ns#"
   xmlns:rdf="http://www.w3.org/1999/02/22-rdf-syntax-ns#"
   xmlns:svg="http://www.w3.org/2000/svg"
   xmlns="http://www.w3.org/2000/svg"
   xmlns:sodipodi="http://sodipodi.sourceforge.net/DTD/sodipodi-0.dtd"
   xmlns:inkscape="http://www.inkscape.org/namespaces/inkscape"
   version="1.1"
   id="Layer_1"
   x="0px"
   y="0px"
   width="138.998"
   height="116.00203"
   viewBox="0 0 138.99799 116.00203"
   enable-background="new 0 0 595.28 841.89"
   xml:space="preserve"
   inkscape:version="0.48.4 r9939"
   sodipodi:docname="NewWinwin[Converted].svg"><metadata
     id="metadata13"><rdf:RDF><cc:Work
         rdf:about=""><dc:format>image/svg+xml</dc:format><dc:type
           rdf:resource="http://purl.org/dc/dcmitype/StillImage" /><dc:title></dc:title></cc:Work></rdf:RDF></metadata><defs
     id="defs11" /><sodipodi:namedview
     pagecolor="#ffffff"
     bordercolor="#666666"
     borderopacity="1"
     objecttolerance="10"
     gridtolerance="10"
     guidetolerance="10"
     inkscape:pageopacity="0"
     inkscape:pageshadow="2"
     inkscape:window-width="1215"
     inkscape:window-height="776"
     id="namedview9"
     showgrid="false"
     fit-margin-top="0"
     fit-margin-left="0"
     fit-margin-right="0"
     fit-margin-bottom="0"
     inkscape:zoom="1.1212866"
     inkscape:cx="69.138128"
     inkscape:cy="58.055001"
     inkscape:window-x="65"
     inkscape:window-y="24"
     inkscape:window-maximized="1"
     inkscape:current-layer="Layer_1" /><path
     clip-rule="evenodd"
     d="m 12.628117,115.73203 c 1.06,-1.85 1.89,-3.55 2.9,-5.12 3.69,-5.57 4.96,-11.790003 5.29,-18.250003 0.04,-0.66 -0.53,-1.5 -1.07,-2.02 -2.98,-2.8 -6.2,-5.4 -9.01,-8.34 -5.9999998,-6.27 -9.4999998,-13.87 -10.40999979,-22.23 -1.69000001,-15.31 3.13999999,-28.51 14.67999979,-39.41 11.15,-10.53 24.56,-16.51 39.78,-19.13 8.17,-1.38999997 16.36,-1.58999997 24.51,-0.66999997 14.34,1.60999997 27.500003,6.27999997 38.910003,14.99999997 9.54,7.3 16.57,16.29 19.44,27.84 3.45,13.88 0.19,26.51 -8.67,37.77 -2.46,3.13 -5.56,5.8 -8.48,8.57 -0.91,0.85 -1.22,1.6 -1.14,2.77 0.54,7.650003 1.26,15.250003 4.67,22.320003 0.1,0.2 0.1,0.43 0.29,1.17 -3.1,-1.18 -5.92,-2.02 -8.51,-3.3 -5.36,-2.67 -10.62,-5.52 -15.850003,-8.42 -1.37,-0.75 -2.53,-1.17 -4.16,-0.72 -8.55,2.3 -17.24,3.82 -26.12,3.83 -9.18,0.04 -18.13,-1.45 -26.89,-4 -1.31,-0.38 -2.25,-0.2 -3.38,0.55 -7.88,5.31 -16.45,9.26 -25.72,11.78 -0.2,0.06 -0.39,0.01 -1.06,0.01 z"
     id="path3"
     inkscape:connector-curvature="0"
     style="fill:#ffffff;fill-rule:evenodd" /><g
     id="g5"
     transform="translate(-228.50188,-362.99797)"><path
       clip-rule="evenodd"
       d="m 327.83,413.03 c 0,-2.29 -1.85,-4.14 -4.14,-4.14 h -17.94 v -17.97 c 0,-2.29 -1.85,-4.15 -4.14,-4.15 h -8.28 c -2.28,0 -4.14,1.86 -4.14,4.15 v 17.97 h -17.94 c -2.28,0 -4.14,1.85 -4.14,4.14 v 8.29 c 0,2.29 1.86,4.15 4.14,4.15 h 17.94 v 17.97 c 0,2.29 1.86,4.14 4.14,4.14 h 8.28 c 2.29,0 4.14,-1.85 4.14,-4.14 v -17.97 h 17.94 c 2.29,0 4.14,-1.86 4.14,-4.15 v -8.29 z"
       id="path7"
       inkscape:connector-curvature="0"
       style="fill:#00b285;fill-rule:evenodd" /></g></svg>