<?xml version="1.0" encoding="UTF-8" standalone="no"?>
<!-- Generator: Adobe Illustrator 16.0.0, SVG Export Plug-In . SVG Version: 6.00 Build 0)  -->

<svg
   xmlns:dc="http://purl.org/dc/elements/1.1/"
   xmlns:cc="http://creativecommons.org/ns#"
   xmlns:rdf="http://www.w3.org/1999/02/22-rdf-syntax-ns#"
   xmlns:svg="http://www.w3.org/2000/svg"
   xmlns="http://www.w3.org/2000/svg"
   xmlns:sodipodi="http://sodipodi.sourceforge.net/DTD/sodipodi-0.dtd"
   xmlns:inkscape="http://www.inkscape.org/namespaces/inkscape"
   version="1.1"
   id="Layer_1"
   x="0px"
   y="0px"
   width="105.146"
   height="87.001335"
   viewBox="0 0 105.146 87.001335"
   enable-background="new 0 0 640 480"
   xml:space="preserve"
   inkscape:version="0.48.4 r9939"
   sodipodi:docname="gupos_ico.svg"><metadata
     id="metadata35"><rdf:RDF><cc:Work
         rdf:about=""><dc:format>image/svg+xml</dc:format><dc:type
           rdf:resource="http://purl.org/dc/dcmitype/StillImage" /><dc:title></dc:title></cc:Work></rdf:RDF></metadata><defs
     id="defs33" /><sodipodi:namedview
     pagecolor="#ffffff"
     bordercolor="#666666"
     borderopacity="1"
     objecttolerance="10"
     gridtolerance="10"
     guidetolerance="10"
     inkscape:pageopacity="0"
     inkscape:pageshadow="2"
     inkscape:window-width="1215"
     inkscape:window-height="776"
     id="namedview31"
     showgrid="false"
     fit-margin-top="0"
     fit-margin-left="0"
     fit-margin-right="0"
     fit-margin-bottom="0"
     inkscape:zoom="0.49166667"
     inkscape:cx="65.817"
     inkscape:cy="44.92313"
     inkscape:window-x="65"
     inkscape:window-y="24"
     inkscape:window-maximized="1"
     inkscape:current-layer="Layer_1" /><path
     clip-rule="evenodd"
     d="m 0,47.129205 c 0.376,-0.454 0.338,-1.04 0.487,-1.57 1.353,-4.954 4.357,-8.226 8.901,-9.929 1.333,-0.492 2.76,-0.681 4.206,-0.681 h 8.111 c 0.375,0 0.751,-0.076 0.77,0.548 0.169,3.537 1.596,6.468 3.905,9.04 -1.164,0.511 -2.309,0.965 -3.361,1.646 -5.275,3.461 -8.016,8.435 -8.036,15.054 0,0.852 -0.019,1.702 0.02,2.554 0.018,0.51 -0.15,0.662 -0.64,0.624 -4.993,-0.246 -9.819,-1.21 -14.363,-3.499 v -13.787 z"
     id="path3"
     inkscape:connector-curvature="0"
     style="fill:#00b285;fill-rule:evenodd" /><path
     clip-rule="evenodd"
     d="m 105.146,60.557205 c -4.45,2.27 -9.2,3.196 -14.101,3.499 -0.695,0.038 -0.92,-0.133 -0.902,-0.908 0.02,-2.723 0.095,-5.428 -0.826,-8.057 -1.802,-5.182 -5.106,-8.738 -9.971,-10.647 -0.675,-0.246 -0.487,-0.435 -0.168,-0.813 2.009,-2.25 3.21,-4.879 3.417,-7.981 0.056,-0.813 0.262,-1.097 1.107,-1.079 2.722,0.058 5.464,-0.019 8.186,0.038 6.291,0.133 11.623,4.823 12.956,11.367 0.075,0.321 0,0.719 0.301,0.984 v 13.597 z"
     id="path5"
     inkscape:connector-curvature="0"
     style="fill:#00b285;fill-rule:evenodd" /><path
     clip-rule="evenodd"
     d="m 72.137,76.463205 c 0,2.326 -0.018,4.236 0.019,6.127 0,0.548 -0.112,0.852 -0.601,1.116 -2.646,1.362 -5.463,2.062 -8.317,2.61 -2.498,0.473 -5.014,0.643 -7.548,0.681 -2.648,0.038 -5.295,-0.189 -7.924,-0.567 -3.625,-0.549 -7.191,-1.381 -10.721,-2.497 -0.695,-0.208 -0.976,-0.529 -0.957,-1.361 0.056,-3.385 0.018,-6.771 0.018,-10.156 0,-5.333 1.953,-9.608 6.122,-12.615 1.971,-1.418 4.168,-2.25 6.552,-2.308 3.417,-0.076 6.835,-0.076 10.251,-0.019 6.122,0.094 11.567,4.992 12.787,11.366 0.507,2.668 0.226,5.372 0.319,7.623 z"
     id="path7"
     inkscape:connector-curvature="0"
     style="fill:#00b285;fill-rule:evenodd" /><path
     clip-rule="evenodd"
     d="m 45.025,55.470205 c -1.916,0.7 -3.605,1.608 -5.108,2.875 -4.205,3.518 -6.308,8.113 -6.308,13.787 v 2.005 c 0,1.191 0,1.191 -1.183,1.096 -4.3,-0.397 -8.543,-1.248 -12.693,-2.534 -2.122,-0.662 -2.122,-0.625 -2.122,-3.007 0,-3.14 -0.038,-6.28 0,-9.418 0.057,-5.618 2.479,-9.815 6.985,-12.634 1.783,-1.115 3.774,-1.683 5.859,-1.74 3.266,-0.056 6.534,-0.019 9.819,-0.038 0.451,0 0.807,0.019 0.845,0.7 0.207,3.461 1.596,6.354 3.906,8.908 z"
     id="path9"
     inkscape:connector-curvature="0"
     style="fill:#00b285;fill-rule:evenodd" /><path
     clip-rule="evenodd"
     d="m 63.219,55.451205 c 2.384,-2.59 3.699,-5.598 3.943,-9.097 0.038,-0.416 0.226,-0.51 0.563,-0.491 3.399,0.094 6.835,-0.246 10.233,0.189 6.253,0.813 11.284,6.468 11.566,13.182 0.169,4.01 0.038,8.038 0.076,12.048 0,0.68 -0.452,0.813 -0.828,0.983 -2.29,1.04 -4.637,1.815 -7.078,2.27 -2.103,0.397 -4.225,0.68 -6.346,0.85 -0.545,0.058 -0.676,-0.094 -0.676,-0.662 0.056,-2.534 0.056,-5.068 -0.657,-7.527 -1.22,-4.218 -3.511,-7.565 -7.116,-9.872 -1.145,-0.739 -2.328,-1.325 -3.68,-1.873 z"
     id="path11"
     inkscape:connector-curvature="0"
     style="fill:#00b285;fill-rule:evenodd" /><path
     clip-rule="evenodd"
     d="m 65.021,12.179205 c -0.038,6.771 -5.106,12.161 -11.435,12.142 -6.346,0 -11.472,-5.465 -11.453,-12.217 C 42.17,5.4662053 47.09,0.03820532 53.624,2.0532351e-4 59.952,-0.03879468 65.041,5.4832053 65.021,12.179205 z"
     id="path13"
     inkscape:connector-curvature="0"
     style="fill:#00b285;fill-rule:evenodd" /><path
     clip-rule="evenodd"
     d="m 25.047,33.172205 c 0.226,-4.085 2.271,-7.565 6.252,-9.514 6.027,-2.931 12.561,0.89 14.214,6.677 0.168,0.567 0.356,1.135 0.487,1.721 0.376,1.607 -0.075,2.724 -1.239,3.858 -1.858,1.778 -2.948,4.104 -3.399,6.732 -0.093,0.568 -0.375,0.833 -0.844,1.097 -6.928,3.972 -15.509,-1.361 -15.471,-10.571 z"
     id="path15"
     inkscape:connector-curvature="0"
     style="fill:#00b285;fill-rule:evenodd" /><path
     clip-rule="evenodd"
     d="m 71.612,22.638205 c 4.036,0.34 7.303,2.08 9.256,6.014 1.915,3.858 1.728,7.717 -0.45,11.329 -2.76,4.52 -7.905,6.223 -12.655,4.35 -0.451,-0.17 -0.676,-0.453 -0.751,-0.964 -0.563,-3.896 -2.422,-6.979 -5.445,-9.249 -0.432,-0.321 -0.582,-0.662 -0.507,-1.191 0.525,-4.388 3.061,-8.151 7.135,-9.589 1.108,-0.379 2.215,-0.719 3.417,-0.7 z"
     id="path17"
     inkscape:connector-curvature="0"
     style="fill:#00b285;fill-rule:evenodd" /><path
     clip-rule="evenodd"
     d="m 99.551,21.559205 c 0.018,8.908 -7.699,14.468 -14.477,11.423 -0.319,-0.151 -0.564,-0.303 -0.62,-0.738 -0.525,-3.952 -2.384,-7.054 -5.407,-9.361 -0.432,-0.341 -0.602,-0.644 -0.545,-1.191 0.488,-4.293 2.498,-7.471 6.215,-9.268 3.623,-1.758 7.172,-1.323 10.42,1.117 2.912,2.175 4.301,5.276 4.414,8.018 z"
     id="path19"
     inkscape:connector-curvature="0"
     style="fill:#00b285;fill-rule:evenodd" /><path
     clip-rule="evenodd"
     d="m 7.473,23.091205 c -0.076,-4.804 3.098,-9.267 7.322,-10.781 6.046,-2.155 13.031,2.308 13.707,9.589 0.075,0.605 -0.075,1.021 -0.544,1.381 -3.042,2.307 -4.864,5.409 -5.389,9.361 -0.056,0.398 -0.263,0.568 -0.582,0.682 -2.967,1.173 -5.896,1.116 -8.75,-0.417 -2.966,-1.588 -4.712,-4.217 -5.558,-7.583 -0.206,-0.794 -0.151,-1.57 -0.206,-2.232 z"
     id="path21"
     inkscape:connector-curvature="0"
     style="fill:#00b285;fill-rule:evenodd" /><path
     clip-rule="evenodd"
     d="m 39.279,6.0522053 -0.15,0.416 c -1.727,4.6139997 -1.371,9.0209997 1.127,13.2199997 0.526,0.87 0.376,1.57 -0.432,2.137 -0.338,0.246 -0.545,0 -0.77,-0.113 -2.084,-1.04 -4.262,-1.494 -6.553,-1.267 -1.164,0.113 -2.291,0.435 -3.38,0.926 -0.488,0.208 -0.676,0.133 -0.751,-0.473 -0.544,-4.009 -2.46,-7.073 -5.633,-9.285 -0.356,-0.247 -0.413,-0.492 -0.3,-0.908 0.919,-3.6879997 4.732,-7.0739997 8.317,-7.5089997 2.385,-0.303 4.619,0.095 6.742,1.286 0.581,0.34 1.032,0.851 1.595,1.191 0.132,0.075 0.226,0.189 0.188,0.379 z"
     id="path23"
     inkscape:connector-curvature="0"
     style="fill:#00b285;fill-rule:evenodd" /><path
     clip-rule="evenodd"
     d="m 73.546,3.0252053 c 4.356,0.246 7.661,2.42 9.538,6.865 0.169,0.3969997 0.169,0.5859997 -0.244,0.8519997 -3.624,2.193 -5.802,5.484 -6.441,9.891 -0.075,0.492 -0.188,0.625 -0.713,0.454 -2.779,-0.87 -5.577,-1.021 -8.375,0.02 l -0.244,0.094 c -1.239,0.511 -1.615,0.359 -2.291,-0.889 -0.263,-0.511 0.075,-0.813 0.263,-1.154 1.446,-2.534 1.971,-5.295 1.802,-8.227 -0.075,-1.2479997 -0.225,-2.5339997 -0.732,-3.6879997 -0.263,-0.586 -0.113,-0.908 0.301,-1.305 1.991,-1.911 4.319,-2.818 7.136,-2.913 z"
     id="path25"
     inkscape:connector-curvature="0"
     style="fill:#00b285;fill-rule:evenodd" /><ellipse
     clip-rule="evenodd"
     cx="307.69501"
     cy="242.366"
     rx="12.205"
     ry="12.293"
     id="ellipse27"
     sodipodi:cx="307.69501"
     sodipodi:cy="242.366"
     sodipodi:rx="12.205"
     sodipodi:ry="12.293"
     style="fill:#00b285;fill-rule:evenodd"
     transform="translate(-254.183,-197.92179)" /><polygon
     clip-rule="evenodd"
     points="314.267,224.398 301.123,224.398 303.001,228.181 312.389,228.181 "
     id="polygon29"
     style="fill:#00b285;fill-rule:evenodd"
     transform="translate(-254.183,-197.92179)" /></svg>