<?xml version="1.0" encoding="utf-8"?>
<!-- Generator: Adobe Illustrator 16.0.0, SVG Export Plug-In . SVG Version: 6.00 Build 0)  -->
<!DOCTYPE svg PUBLIC "-//W3C//DTD SVG 1.1//EN" "http://www.w3.org/Graphics/SVG/1.1/DTD/svg11.dtd">
<svg version="1.1"
	 id="svg18016" xmlns:svg="http://www.w3.org/2000/svg" xmlns:rdf="http://www.w3.org/1999/02/22-rdf-syntax-ns#" xmlns:cc="http://creativecommons.org/ns#" xmlns:dc="http://purl.org/dc/elements/1.1/"
	 xmlns="http://www.w3.org/2000/svg" xmlns:xlink="http://www.w3.org/1999/xlink" x="0px" y="0px" width="68px" height="63px"
	 viewBox="0 0 68 63" enable-background="new 0 0 68 63" xml:space="preserve">
<path fill-rule="evenodd" clip-rule="evenodd" fill="#CF6A2E" d="M24.434,11.382"/>
<path fill-rule="evenodd" clip-rule="evenodd" fill="#CF6A2E" d="M30.696,10.1"/>
<path fill-rule="evenodd" clip-rule="evenodd" fill="#FFFFFF" d="M44.899,8.234c-5.033-1.758-10.078-2.474-15.311-1.71
	c-5.84,0.854-11.077,3.176-15.43,7.503c-3.816,3.791-6.16,8.402-6.29,14.084c-0.111,4.83,1.297,9.117,4.37,12.695
	c0.956,1.113,2.058,2.085,3.104,3.109c0.254,0.25,0.408,0.5,0.39,0.896c-0.122,2.7-0.653,5.269-2.014,7.59
	c-0.296,0.504-0.548,1.04-0.81,1.566c-0.072,0.144-0.206,0.318-0.091,0.48c0.13,0.178,0.297,0.016,0.444-0.028
	c3.188-0.942,6.16-2.406,8.874-4.411c0.874-0.644,1.619-0.754,2.617-0.442c3.688,1.155,7.456,1.625,11.303,1.371
	c2.707-0.178,5.335-0.795,7.938-1.55c0.535-0.155,0.92-0.071,1.35,0.254c2.653,2.014,5.56,3.508,8.609,4.688
	c0.201,0.08,0.401,0.274,0.671,0.115c-0.021-0.097-0.028-0.194-0.065-0.279c-1.223-2.833-1.542-5.864-1.754-8.931
	c-0.059-0.826,0.158-1.374,0.745-1.918c4.108-3.836,6.455-8.618,6.58-14.521c0.058-2.722-0.439-5.341-1.577-7.799
	C58.555,20.999,56.397,12.25,44.899,8.234z"/>
</svg>
