<?xml version="1.0" encoding="utf-8"?>
<!-- Generator: Adobe Illustrator 16.0.0, SVG Export Plug-In . SVG Version: 6.00 Build 0)  -->
<!DOCTYPE svg PUBLIC "-//W3C//DTD SVG 1.1//EN" "http://www.w3.org/Graphics/SVG/1.1/DTD/svg11.dtd">
<svg version="1.1" id="Capa_1" xmlns="http://www.w3.org/2000/svg" xmlns:xlink="http://www.w3.org/1999/xlink" x="0px" y="0px"
	 width="115px" height="115px" viewBox="0 0 115 115" enable-background="new 0 0 115 115" xml:space="preserve">
<g>
	
		<ellipse fill="#4CAE4E" stroke="#FFFFFF" stroke-width="5" stroke-miterlimit="10" cx="57.022" cy="56.158" rx="53.416" ry="53.023"/>
	<path fill="#FFFFFF" d="M30.128,71.285c0.399-1.959,0.797-3.881,1.177-5.795c0.032-0.17-0.051-0.312-0.024-0.484
		c0.072-0.529,0.177-1.068,0.257-1.602c0.215-1.461,0.456-2.932,0.627-4.381c0.222-1.893,0.528-3.82,0.533-5.631
		c0.02-3.197-0.129-6.333-0.274-9.464c-0.103-2.293-0.317-4.541-0.463-6.814c-0.023-0.3,0.056-0.644,0.091-0.979
		c0.808-0.153,1.552-0.344,2.243-0.418c3.493-0.393,6.988-0.801,10.44-1.099c1.554-0.132,3.026-0.057,4.5-0.015
		c2.933,0.079,5.642,0.5,8.273,1.037c2.914,0.595,5.602,1.423,7.557,3.051c1.123,0.925,1.287,2.365,1.039,3.994
		c-0.088,0.604-0.248,1.229-0.395,1.848c-0.184,0.794-0.01,1.084,0.864,1.104c1.089,0.023,2.259-0.088,3.313-0.011
		c2.463,0.178,5.203-0.232,7.807-0.352c1.74-0.078,3.63-0.47,5.471-0.762c1.592-0.253,3.182-0.472,4.803-0.862
		c1.547-0.374,3.139-0.915,4.711-1.454c1.489-0.508,2.985-1.111,4.479-1.67c0.202-0.077,0.409-0.11,0.67-0.182
		c-0.521,0.899-0.986,1.719-1.472,2.538c-1.664,2.802-3.344,5.608-5.004,8.411c-0.853,1.438-1.705,2.875-2.526,4.312
		c-0.567,0.99-1.058,1.982-1.634,2.97c-0.354,0.607-0.875,1.208-1.198,1.809c-0.908,1.691-1.777,3.379-2.621,5.066
		c-1.056,2.104-2.049,4.199-3.104,6.303c-0.295,0.59-0.713,1.182-1.094,1.771c-0.304,0.476-0.744,0.832-1.326,1
		c-1.939,0.564-3.877,1.111-5.816,1.69c-2.514,0.75-4.896,1.042-7.27,1.354c-2.236,0.297-4.427,0.408-6.541,0.421
		c-3.979,0.024-7.371-0.771-10.481-1.97c-2.217-0.852-2.539-2.633-1.744-5.082c0.124-0.377,0.192-0.75,0.235-1.108
		c0.055-0.472-0.354-0.521-0.823-0.546c-3.218-0.191-6.708,0.271-10.314,1.018C33.439,70.646,31.795,70.954,30.128,71.285
		 M51.165,58.667c-3.055-0.573-6.155-0.938-9.614-0.715c-0.272,1.817-0.489,3.583-0.804,5.374c-0.269,1.549-0.66,3.129-0.953,4.684
		c-0.181,0.979-0.005,1.07,1.182,0.949c0.681-0.068,1.38-0.165,2.019-0.146c1.463,0.049,2.897,0.15,4.335,0.246
		c0.358,0.021,0.678,0.104,1.163,0.181c0.929-3.546,1.826-6.988,2.75-10.521c2.702,0.766,5.357,1.561,7.332,3.143
		c0.183-0.545,0.271-1.047,0.409-1.561c0.357-1.342,0.777-2.697,1.095-4.029c0.271-1.127,0.397-2.22,0.639-3.34
		c0.261-1.185,0.589-2.381,0.857-3.567c0.036-0.196-0.003-0.446-0.152-0.517c-2.528-1.219-5.156-2.325-8.526-2.613
		C52.553,50.307,52.293,54.311,51.165,58.667 M60.842,66.709c-0.158,0.252-0.309,0.449-0.41,0.648c-1.408,2.664-2.816,5.334-4.201,8
		c-0.252,0.486-0.406,0.975-0.544,1.451c-0.125,0.438,0.075,0.684,0.567,0.7c0.441,0.015,0.893,0.021,1.312,0.071
		c2.401,0.302,5.093-0.042,7.853-0.521c0.472-0.08,0.81-0.293,1.032-0.731c0.635-1.248,1.289-2.497,1.939-3.744
		c1.032-1.963,2.062-3.926,3.102-5.885c0.172-0.322,0.098-0.416-0.26-0.375c-1.06,0.125-2.121,0.256-3.156,0.333
		c-1.172,0.085-2.346,0.164-3.477,0.17C63.334,66.833,62.113,66.756,60.842,66.709 M84.531,45.004
		c-1.754,0.259-3.436,0.555-5.073,0.738c-1.798,0.194-3.548,0.269-5.331,0.427c-1.15,0.1-1.292,0.177-1.92,1.19
		c-1.775,2.87-3.508,5.738-5.273,8.609c-0.268,0.432-0.162,0.586,0.281,0.569c1.045-0.028,2.075-0.045,3.119-0.069
		c0.127-0.007,0.273-0.044,0.404-0.061c0.818-0.103,1.641-0.202,2.459-0.312c1.348-0.178,2.697-0.36,4.043-0.547
		c0.398-0.056,0.768-0.214,1.004-0.609c0.518-0.854,1.016-1.715,1.557-2.568c1.434-2.242,2.887-4.476,4.33-6.717
		C84.25,45.472,84.361,45.286,84.531,45.004 M52.757,46.058c0.036-0.346,0.088-0.585,0.077-0.802
		c-0.064-2.865-0.135-5.727-0.221-8.583c-0.023-0.77-0.143-1.387-1.369-1.331c-1.766,0.086-3.361-0.169-5.086-0.169
		c-1.31-0.005-2.71,0.165-4.055,0.256c0.083,3.369,0.164,6.691,0.247,10.075C45.94,45.341,49.422,45.527,52.757,46.058
		 M41.443,57.822c0.012-0.199,0.012-0.318,0.032-0.443c0.462-3.818,0.791-7.596,0.807-11.267c0.006-0.349-0.139-0.548-0.557-0.519
		c-0.614,0.041-1.271,0.164-1.861,0.165c-1.857-0.008-3.878,0.536-5.89,1.038c-0.214,0.055-0.427,0.127-0.668,0.198
		c-0.009,0.184-0.026,0.325-0.029,0.461c-0.043,2.232-0.062,4.458-0.137,6.697c-0.054,1.488-0.177,3-0.316,4.516
		c-0.04,0.432,0.082,0.555,0.671,0.373c2.053-0.65,3.985-0.918,5.863-1.002C40.018,58.01,40.713,57.901,41.443,57.822
		 M89.961,52.924c-1.307,0.357-2.581,0.705-3.861,1.06c-2.468,0.682-4.883,1.171-7.231,1.434c-0.437,0.052-0.771,0.288-0.996,0.638
		c-0.685,1.038-1.375,2.079-2.006,3.122c-0.608,0.986-1.154,1.98-1.709,2.969c-0.667,1.194-1.32,2.388-1.957,3.584
		c-0.062,0.111,0.026,0.328,0.106,0.32c0.785-0.105,1.568-0.182,2.373-0.383c2.15-0.529,4.309-1.107,6.471-1.682
		c0.697-0.189,1.4-0.401,2.111-0.646c0.406-0.135,0.777-0.343,1.004-0.758c0.857-1.56,1.729-3.117,2.613-4.675
		c0.451-0.792,0.922-1.581,1.41-2.375C88.832,54.66,89.404,53.791,89.961,52.924 M61.012,66.366
		c0.086-0.224,0.143-0.392,0.221-0.558c0.34-0.732,0.779-1.482,0.985-2.188c0.121-0.409,0.479-0.708,0.661-1.054
		c0.335-0.605,0.58-1.211,0.885-1.818c0.131-0.256,0.307-0.516,0.471-0.771c0.445-0.688,0.896-1.379,1.341-2.07
		c0.217-0.331,0.399-0.662,0.612-0.994c0.172-0.265,0.392-0.6-0.045-0.528c-0.36,0.058-0.844-0.001-1.19,0.585
		c-0.566-0.052-1.156-0.066-1.683-0.167c-0.473-0.088-0.877-0.271-1.451-0.46c-0.4,1.021-0.754,1.898-1.082,2.773
		c-0.463,1.244-0.913,2.488-1.358,3.73c-0.336,0.938-0.67,1.875-0.976,2.811c-0.055,0.16-0.028,0.393,0.09,0.428
		c0.674,0.172,1.384,0.301,2.095,0.425C60.678,66.523,60.855,66.422,61.012,66.366 M55.524,71.631
		c-0.509-0.254-0.949-0.587-1.533-0.748c-1.538-0.422-3.122-0.789-4.716-1.143c-0.614-0.135-1.303-0.17-1.955-0.248
		c-0.273-0.033-0.574,0.015-0.636,0.357c-0.132,0.724-0.231,1.438-0.286,2.135c-0.01,0.139,0.222,0.256,0.408,0.258
		c0.468-0.004,1.02-0.156,1.448-0.109c1.447,0.167,2.829,0.43,4.285,0.574c0.679,0.068,1.464,0,2.24-0.125
		C55.432,72.479,55.694,72.089,55.524,71.631"/>
	<line fill="none" stroke="#FFFFFF" stroke-width="5" stroke-miterlimit="10" x1="31" y1="36.963" x2="28.073" y2="81.993"/>
</g>
</svg>
