<?xml version="1.0" encoding="utf-8"?>
<!-- Generator: Adobe Illustrator 16.0.0, SVG Export Plug-In . SVG Version: 6.00 Build 0)  -->
<!DOCTYPE svg PUBLIC "-//W3C//DTD SVG 1.1//EN" "http://www.w3.org/Graphics/SVG/1.1/DTD/svg11.dtd">
<svg version="1.1" id="Capa_1" xmlns="http://www.w3.org/2000/svg" xmlns:xlink="http://www.w3.org/1999/xlink" x="0px" y="0px"
	 width="30px" height="30px" viewBox="0 0 30 30" enable-background="new 0 0 30 30" xml:space="preserve">
<path fill="#FFFFFF" d="M24.705,24.647h-4v-6.75c0-1.061-1.189-1.939-2.25-1.939s-1.75,0.879-1.75,1.939v6.75h-4v-12h4v2
	c0.66-1.07,2.359-1.76,3.5-1.76c2.5,0,4.5,2.04,4.5,4.51V24.647 M10.705,24.647h-4v-12h4V24.647 M8.705,6.647c1.104,0,2,0.896,2,2
	s-0.896,2-2,2s-2-0.896-2-2S7.6,6.647,8.705,6.647z"/>
</svg>
