<?xml version="1.0" encoding="utf-8"?>
<!-- Generator: Adobe Illustrator 16.0.0, SVG Export Plug-In . SVG Version: 6.00 Build 0)  -->
<!DOCTYPE svg PUBLIC "-//W3C//DTD SVG 1.1//EN" "http://www.w3.org/Graphics/SVG/1.1/DTD/svg11.dtd">
<svg version="1.1" id="Capa_1" xmlns="http://www.w3.org/2000/svg" xmlns:xlink="http://www.w3.org/1999/xlink" x="0px" y="0px"
	 width="130px" height="27px" viewBox="0 0 130 27" enable-background="new 0 0 130 27" xml:space="preserve">
<path fill-rule="evenodd" clip-rule="evenodd" fill="#FFFFFF" d="M19.145,18.057c0.68-2.24,1.353-4.483,2.043-6.722
	c0.205-0.657,0.412-1.323,0.705-1.946c0.596-1.273,1.865-1.808,3.243-1.428c1.349,0.373,2.104,1.422,1.976,2.803
	c-0.041,0.437-0.139,0.878-0.285,1.291c-1.432,4.008-2.874,8.012-4.324,12.014c-0.217,0.6-0.536,1.157-0.948,1.656
	c-1.44,1.74-4.149,1.516-5.161-0.484c-1.029-2.033-1.556-4.255-2.356-6.375c-0.136-0.354-0.173-0.75-0.548-1.145
	c-0.342,0.991-0.655,1.914-0.976,2.836c-0.471,1.357-0.899,2.731-1.434,4.064c-0.515,1.278-1.371,2.215-2.938,2.25
	c-1.363,0.032-2.35-0.559-2.969-1.702c-0.876-1.616-1.331-3.395-1.971-5.1c-0.975-2.588-1.875-5.202-2.805-7.806
	c-0.109-0.312-0.224-0.627-0.295-0.947c-0.369-1.625,0.285-2.883,1.703-3.312c1.59-0.479,2.934,0.103,3.504,1.724
	c0.868,2.475,1.596,4.995,2.389,7.495c0.09,0.278,0.105,0.592,0.345,0.83c0.321-0.138,0.299-0.453,0.377-0.692
	c0.743-2.258,1.464-4.521,2.204-6.777c0.136-0.419,0.309-0.829,0.492-1.23c0.441-0.962,1.24-1.363,2.297-1.415
	c1.105-0.055,1.96,0.334,2.453,1.294c0.787,1.535,1.166,3.217,1.725,4.835c0.457,1.322,0.879,2.656,1.314,3.986
	C18.984,18.055,19.064,18.057,19.145,18.057"/>
<path fill-rule="evenodd" clip-rule="evenodd" fill="#FFFFFF" d="M76.823,18.095c0.344-0.58,0.434-1.205,0.619-1.792
	c0.693-2.184,1.316-4.392,2.072-6.556c0.549-1.572,1.775-2.161,3.336-1.792c1.428,0.337,2.289,1.578,2,2.996
	c-0.457,2.227-1.432,4.295-2.16,6.438c-0.672,1.988-1.418,3.954-2.127,5.93c-0.254,0.705-0.541,1.392-0.955,2.024
	c-0.742,1.138-1.812,1.648-3.172,1.507c-1.219-0.127-2.027-0.846-2.438-1.929c-0.801-2.12-1.543-4.26-2.317-6.39
	c-0.09-0.246-0.087-0.543-0.435-0.777c-0.374,1.095-0.729,2.152-1.094,3.206c-0.436,1.252-0.792,2.528-1.34,3.744
	c-0.593,1.315-1.486,2.204-3.079,2.17c-1.61-0.036-2.566-0.961-3.104-2.304c-0.748-1.875-1.41-3.783-2.086-5.684
	c-0.9-2.525-1.851-5.034-2.646-7.59c-0.676-2.174,1.197-3.921,3.449-3.325c0.977,0.257,1.506,0.976,1.789,1.845
	c0.729,2.231,1.407,4.477,2.106,6.717c0.161,0.513,0.33,1.024,0.7,1.544c0.431-1.298,0.863-2.595,1.291-3.895
	c0.456-1.391,0.874-2.795,1.363-4.174c0.537-1.518,1.288-2.06,2.703-2.065c1.356-0.006,2.21,0.596,2.716,2.06
	c0.828,2.403,1.598,4.825,2.396,7.238C76.505,17.516,76.522,17.828,76.823,18.095"/>
<path fill-rule="evenodd" clip-rule="evenodd" fill="#FFFFFF" d="M38.678,17.34c0-2.179-0.025-4.356,0.008-6.535
	c0.029-1.878,1.197-2.934,3.062-2.861c0.829,0.032,1.506,0.359,1.889,1.067c0.309,0.569,0.526,0.59,1.045,0.189
	c2.763-2.128,7.104-1.83,9.567,0.578c1.095,1.071,1.532,2.383,1.548,3.824c0.038,3.474,0.028,6.95,0.004,10.425
	c-0.008,1.067-0.344,2.02-1.433,2.535c-1,0.473-1.97,0.417-2.905-0.169c-0.953-0.597-1.144-1.546-1.156-2.528
	c-0.035-2.785-0.004-5.572-0.039-8.356c-0.028-2.236-2.143-3.675-4.164-2.821c-1.331,0.562-1.924,1.669-1.936,3.047
	c-0.025,2.814,0.001,5.627-0.027,8.439c-0.013,1.314-0.618,2.13-1.78,2.551c-1.042,0.378-2.259,0.068-3.021-0.762
	c-0.508-0.551-0.637-1.227-0.642-1.92c-0.019-2.234-0.008-4.469-0.008-6.703H38.678z"/>
<path fill-rule="evenodd" clip-rule="evenodd" fill="#FFFFFF" d="M95.966,17.344c0-2.178-0.023-4.357,0.006-6.536
	c0.025-1.903,1.229-2.97,3.145-2.86c0.762,0.045,1.455,0.347,1.76,0.992c0.385,0.82,0.705,0.538,1.205,0.166
	c2.246-1.674,5.955-1.748,8.326-0.235c1.912,1.22,2.699,2.961,2.684,5.129c-0.025,3.446-0.008,6.892-0.059,10.337
	c-0.021,1.446-1.012,2.412-2.414,2.521c-1.527,0.12-2.611-0.681-2.92-2.164c-0.062-0.295-0.107-0.599-0.109-0.897
	c-0.016-2.757,0-5.517-0.033-8.274c-0.025-2.235-2.131-3.683-4.154-2.839c-1.334,0.559-1.924,1.662-1.936,3.043
	c-0.021,2.785,0,5.571-0.025,8.357c-0.012,1.347-0.646,2.235-1.783,2.642c-1.045,0.373-2.26,0.07-3.027-0.758
	c-0.506-0.547-0.635-1.229-0.643-1.921c-0.018-2.234-0.006-4.468-0.006-6.702H95.966"/>
<path fill-rule="evenodd" clip-rule="evenodd" fill="#FFFFFF" d="M123.204,26.999c-2.512-0.016-4.35-0.478-6.004-1.542
	c-0.703-0.451-1.283-1.015-1.457-1.854c-0.193-0.942,0.105-1.74,0.842-2.381c0.801-0.7,1.711-0.659,2.627-0.309
	c1.129,0.432,2.178,1.061,3.402,1.253c0.375,0.06,0.729,0.06,1.076-0.099c0.457-0.207,0.836-0.479,0.855-1.026
	c0.016-0.519-0.322-0.817-0.756-1.001c-1.5-0.639-3.029-1.224-4.52-1.887c-2.17-0.966-3.213-2.617-3.006-4.963
	c0.205-2.337,1.582-3.887,3.701-4.738c2.746-1.104,5.484-0.967,8.035,0.633c0.854,0.534,1.518,1.233,1.527,2.331
	c0.014,1.847-1.531,2.879-3.289,2.188c-0.992-0.389-1.912-0.984-3.029-1c-0.281-0.004-0.568-0.004-0.842,0.051
	c-0.346,0.07-0.637,0.252-0.707,0.629c-0.066,0.354,0.043,0.65,0.324,0.888c0.35,0.296,0.779,0.446,1.193,0.62
	c1.271,0.534,2.605,0.936,3.812,1.612c2.037,1.137,3.254,2.784,2.967,5.136c-0.299,2.446-1.684,4.158-4.121,4.984
	C124.81,26.874,123.749,27.012,123.204,26.999"/>
<path fill-rule="evenodd" clip-rule="evenodd" fill="#FFFFFF" d="M92.251,17.414c0,2.179,0.02,4.357-0.008,6.537
	c-0.021,1.847-1.236,2.993-2.961,2.858c-1.244-0.096-2.113-0.851-2.314-2.049c-0.086-0.517-0.156-1.041-0.156-1.562
	c0.006-4.137-0.014-8.274,0.064-12.41c0.045-2.375,2.18-3.558,4.164-2.407c0.982,0.569,1.17,1.511,1.203,2.496
	c0.037,1.102,0.008,2.206,0.008,3.309C92.251,15.263,92.251,16.338,92.251,17.414"/>
<path fill-rule="evenodd" clip-rule="evenodd" fill="#FFFFFF" d="M34.789,17.416c0,2.206,0.029,4.414-0.008,6.618
	c-0.037,2.282-2.19,3.494-4.152,2.387c-0.639-0.362-0.986-0.903-1.105-1.585c-0.091-0.514-0.168-1.04-0.165-1.56
	c0.022-4.22-0.094-8.438,0.065-12.655c0.101-2.646,2.691-3.153,4.172-2.24c0.965,0.594,1.164,1.512,1.189,2.5
	c0.028,1.103,0.006,2.206,0.006,3.31c0.002,1.075,0,2.149,0,3.226H34.789z"/>
<path fill-rule="evenodd" clip-rule="evenodd" fill="#EB6A24" d="M35.304,3.04c0.01,1.739-1.368,3.125-3.118,3.132
	c-1.787,0.006-3.177-1.322-3.195-3.054C28.972,1.336,30.345-0.001,32.193,0C33.928,0.001,35.294,1.334,35.304,3.04"/>
<path fill-rule="evenodd" clip-rule="evenodd" fill="#EB6A24" d="M92.759,3.132c-0.018,1.664-1.451,3.054-3.146,3.046
	c-1.926-0.009-3.227-1.427-3.203-3.496c0.018-1.531,1.352-2.691,3.062-2.665C91.284,0.047,92.774,1.458,92.759,3.132"/>
</svg>
