<?xml version="1.0" encoding="UTF-8" standalone="no"?>
<!-- Generator: Adobe Illustrator 16.0.0, SVG Export Plug-In . SVG Version: 6.00 Build 0)  -->

<svg
   xmlns:dc="http://purl.org/dc/elements/1.1/"
   xmlns:cc="http://creativecommons.org/ns#"
   xmlns:rdf="http://www.w3.org/1999/02/22-rdf-syntax-ns#"
   xmlns:svg="http://www.w3.org/2000/svg"
   xmlns="http://www.w3.org/2000/svg"
   xmlns:sodipodi="http://sodipodi.sourceforge.net/DTD/sodipodi-0.dtd"
   xmlns:inkscape="http://www.inkscape.org/namespaces/inkscape"
   version="1.1"
   id="Layer_1"
   x="0px"
   y="0px"
   width="91.998596"
   height="77.0037"
   viewBox="0 0 91.998596 77.0037"
   enable-background="new 0 0 640 480"
   xml:space="preserve"
   inkscape:version="0.48.4 r9939"
   sodipodi:docname="search [Converted].svg"><metadata
     id="metadata3282"><rdf:RDF><cc:Work
         rdf:about=""><dc:format>image/svg+xml</dc:format><dc:type
           rdf:resource="http://purl.org/dc/dcmitype/StillImage" /><dc:title></dc:title></cc:Work></rdf:RDF></metadata><defs
     id="defs3280" /><sodipodi:namedview
     pagecolor="#ffffff"
     bordercolor="#666666"
     borderopacity="1"
     objecttolerance="10"
     gridtolerance="10"
     guidetolerance="10"
     inkscape:pageopacity="0"
     inkscape:pageshadow="2"
     inkscape:window-width="1215"
     inkscape:window-height="776"
     id="namedview3278"
     showgrid="false"
     fit-margin-top="0"
     fit-margin-left="0"
     fit-margin-right="0"
     fit-margin-bottom="0"
     inkscape:zoom="0.49166667"
     inkscape:cx="45.497539"
     inkscape:cy="39"
     inkscape:window-x="65"
     inkscape:window-y="24"
     inkscape:window-maximized="1"
     inkscape:current-layer="Layer_1" /><g
     id="g3272"
     transform="translate(-274.50246,-201.9963)"><path
       clip-rule="evenodd"
       d="m 319.12,220.85 c -9.16,0 -16.61,6.75 -16.61,15.03 0,8.27 7.45,15.01 16.61,15.01 9.15,0 16.62,-6.74 16.62,-15.01 0,-8.28 -7.47,-15.03 -16.62,-15.03 z"
       id="path3274"
       inkscape:connector-curvature="0"
       style="fill:#ffffff;fill-rule:evenodd" /><path
       clip-rule="evenodd"
       d="m 365.61,230.81 c -1.9,-7.67 -6.55,-13.64 -12.87,-18.48 -7.56,-5.79 -16.26,-8.89 -25.75,-9.96 -5.4,-0.61 -10.82,-0.48 -16.22,0.44 -10.08,1.74 -18.96,5.71 -26.34,12.7 -7.63,7.24 -10.83,16 -9.71,26.16 0.6,5.55 2.92,10.6 6.89,14.76 1.86,1.95 3.99,3.68 5.96,5.54 0.36,0.34 0.74,0.9 0.71,1.34 -0.22,4.28 -1.06,8.42 -3.5,12.11 -0.67,1.04 -1.22,2.18 -1.92,3.4 0.44,0 0.57,0.03 0.7,0 6.13,-1.68 11.81,-4.3 17.02,-7.83 0.75,-0.49 1.37,-0.61 2.24,-0.36 5.8,1.7 11.73,2.68 17.8,2.66 5.88,-0.01 11.63,-1.02 17.29,-2.55 1.08,-0.3 1.84,-0.02 2.75,0.48 3.46,1.93 6.94,3.82 10.49,5.59 1.71,0.85 3.58,1.41 5.63,2.19 -0.12,-0.49 -0.13,-0.64 -0.19,-0.77 -2.25,-4.7 -2.73,-9.74 -3.09,-14.83 -0.05,-0.77 0.16,-1.26 0.76,-1.83 1.93,-1.84 3.98,-3.61 5.61,-5.69 5.86,-7.47 8.02,-15.86 5.74,-25.07 z m -20.93,31.79 c -1.07,0 -2.1,-0.4 -2.82,-1.08 l -7.95,-8.34 c -4.34,1.41 -9.53,2.15 -14.79,2.15 -14.42,0 -21.53,-6.42 -21.53,-19.45 0,-13.04 7.11,-19.48 21.53,-19.48 14.41,0 21.54,6.44 21.54,19.48 0,4.75 -0.82,9.44 -2.38,13.36 l 9.26,7.17 c 0.72,0.65 1.16,1.59 1.16,2.56 0,1.98 -1.82,3.63 -4.02,3.63 z"
       id="path3276"
       inkscape:connector-curvature="0"
       style="fill:#ffffff;fill-rule:evenodd" /></g></svg>