<?xml version="1.0" encoding="UTF-8" standalone="no"?>
<!-- Generator: Adobe Illustrator 16.0.0, SVG Export Plug-In . SVG Version: 6.00 Build 0)  -->

<svg
   xmlns:dc="http://purl.org/dc/elements/1.1/"
   xmlns:cc="http://creativecommons.org/ns#"
   xmlns:rdf="http://www.w3.org/1999/02/22-rdf-syntax-ns#"
   xmlns:svg="http://www.w3.org/2000/svg"
   xmlns="http://www.w3.org/2000/svg"
   xmlns:sodipodi="http://sodipodi.sourceforge.net/DTD/sodipodi-0.dtd"
   xmlns:inkscape="http://www.inkscape.org/namespaces/inkscape"
   version="1.1"
   id="Layer_1"
   x="0px"
   y="0px"
   width="145"
   height="151.5"
   viewBox="0 0 145 151.5"
   enable-background="new 0 0 640 480"
   xml:space="preserve"
   inkscape:version="0.48.4 r9939"
   sodipodi:docname="quorum_ico.svg"><metadata
     id="metadata59"><rdf:RDF><cc:Work
         rdf:about=""><dc:format>image/svg+xml</dc:format><dc:type
           rdf:resource="http://purl.org/dc/dcmitype/StillImage" /></cc:Work></rdf:RDF></metadata><defs
     id="defs57" /><sodipodi:namedview
     pagecolor="#ffffff"
     bordercolor="#666666"
     borderopacity="1"
     objecttolerance="10"
     gridtolerance="10"
     guidetolerance="10"
     inkscape:pageopacity="0"
     inkscape:pageshadow="2"
     inkscape:window-width="1215"
     inkscape:window-height="776"
     id="namedview55"
     showgrid="false"
     fit-margin-top="0"
     fit-margin-left="0"
     fit-margin-right="0"
     fit-margin-bottom="0"
     inkscape:zoom="0.49166667"
     inkscape:cx="96.749"
     inkscape:cy="60.327"
     inkscape:window-x="65"
     inkscape:window-y="24"
     inkscape:window-maximized="1"
     inkscape:current-layer="Layer_1" /><g
     id="g3"
     transform="translate(-223.251,-148.827)"><g
       id="g5"><path
         clip-rule="evenodd"
         d="m 344.145,173.852 c 2.186,4.159 3.138,8.565 3.035,13.17 -0.257,9.976 -4.757,18.07 -12.626,24.556 -1.131,0.916 -1.542,1.831 -1.44,3.243 0.412,5.173 1.03,10.297 3.369,15.075 0.078,0.148 0.078,0.321 0.129,0.47 -0.515,0.272 -0.9,-0.05 -1.286,-0.198 -5.864,-1.98 -11.443,-4.505 -16.535,-7.921 -0.823,-0.545 -1.543,-0.694 -2.572,-0.42 -4.988,1.286 -10.028,2.327 -15.223,2.623 -7.38,0.422 -14.631,-0.371 -21.703,-2.327 -1.903,-0.52 -3.343,-0.346 -5.015,0.744 -5.219,3.39 -10.902,5.866 -17.023,7.476 -0.283,0.074 -0.617,0.346 -0.848,0.024 -0.232,-0.272 0.025,-0.569 0.18,-0.792 0.488,-0.892 0.977,-1.807 1.543,-2.649 2.597,-3.936 3.625,-8.268 3.857,-12.822 0.052,-0.694 -0.257,-1.114 -0.746,-1.535 -2.006,-1.733 -4.115,-3.366 -5.967,-5.248 -5.887,-6.04 -8.588,-13.293 -8.382,-21.461 0.257,-9.604 4.757,-17.377 12.086,-23.789 8.331,-7.303 18.386,-11.238 29.597,-12.674 10.028,-1.287 19.826,-0.371 29.365,2.872 0.54,0.198 1.131,0.296 1.57,0.668 -0.694,0.544 -1.337,0.024 -2.006,-0.125 -0.412,-0.099 -0.849,-0.395 -1.106,0.198 -0.308,0.718 -0.977,0.744 -1.671,0.792 -1.414,0.099 -2.854,-0.147 -4.216,0.422 -1.415,0.099 -2.726,-0.396 -4.115,-0.496 -0.694,-0.248 -1.466,-0.099 -2.186,-0.272 -0.849,-0.248 -1.749,-0.099 -2.649,-0.149 -0.359,0 -0.745,-0.025 -1.131,-0.099 -1.491,-0.272 -2.982,-0.173 -4.5,0.024 -0.514,0.099 -1.054,0.075 -1.593,0.075 -1.955,-0.049 -3.857,0.396 -5.761,0.718 -1.595,0.173 -3.163,0.593 -4.706,1.014 -0.514,0.125 -1.028,0.323 -1.543,0.446 -0.643,0.05 -1.259,0.272 -1.851,0.52 -1.543,0.421 -2.957,1.089 -4.424,1.708 -0.41,0.125 -0.797,0.248 -1.156,0.496 -0.206,0.124 -0.412,0.248 -0.643,0.322 -1.028,0.371 -2.007,0.841 -2.932,1.436 -0.977,0.446 -1.877,1.016 -2.777,1.609 -2.237,1.337 -4.294,2.896 -6.48,4.653 0.952,0.422 1.774,0.248 2.52,0.323 4.937,0.52 9.9,1.014 14.761,1.931 0.359,0.075 0.719,0.049 1.053,0.099 3.061,0.545 6.069,1.188 9.052,2.029 l 0.387,0.099 c 1.104,0.396 2.262,0.595 3.342,0.966 l 0.9,0.297 c 0.54,0.173 1.08,0.347 1.62,0.494 0.797,0.273 1.594,0.496 2.392,0.768 5.117,1.833 10.028,4.109 14.631,6.906 0.952,0.595 2.108,0.99 2.597,2.081 -0.155,0.94 -0.9,1.509 -1.44,2.202 -1.08,1.337 -0.977,2.945 0.257,3.614 0.566,0.297 1.183,0.52 1.852,0.668 2.366,0.075 4.757,-0.074 7.123,0.099 1.337,0.545 2.134,1.634 2.957,2.699 1.8,2.128 3.214,4.479 4.603,6.855 0.9,1.783 1.646,3.615 2.211,5.496 0.231,0.817 0.515,0.841 1.106,0.272 0.771,-0.742 1.44,-1.583 2.057,-2.45 0.078,-0.148 0.206,-0.272 0.334,-0.396 0.387,-0.272 0.618,-0.643 0.772,-1.064 0.513,-0.667 1.105,-1.312 1.414,-2.129 0.36,-0.668 0.797,-1.311 0.977,-2.079 0.463,-1.089 1.158,-2.104 1.363,-3.292 0.437,-1.585 0.977,-3.168 0.925,-4.828 0.181,-1.534 0.566,-3.069 0.155,-4.604 -0.077,-0.42 -0.103,-0.817 0.103,-1.188 0.591,-0.272 0.385,-0.768 0.412,-1.188 0.103,-1.634 0,-3.267 0.154,-4.876 0.077,-0.718 0.18,-1.336 1.183,-1.386 0.489,-0.027 -0.257,-0.67 0.308,-0.795 z"
         id="path7"
         inkscape:connector-curvature="0"
         style="fill:#ffffff;fill-rule:evenodd" /><path
         clip-rule="evenodd"
         d="m 254.866,185.438 c 0,-20.224 20.648,-36.611 46.156,-36.611 25.483,0 46.158,16.388 46.158,36.611 0,20.224 -20.674,36.636 -46.158,36.636 -25.508,-0.001 -46.156,-16.412 -46.156,-36.636 z"
         id="path9"
         inkscape:connector-curvature="0"
         style="fill:#ffffff;fill-rule:evenodd" /></g><path
       clip-rule="evenodd"
       d="m 254.866,185.438 c 0,-20.224 20.648,-36.611 46.156,-36.611 25.483,0 46.158,16.388 46.158,36.611 0,20.224 -20.674,36.636 -46.158,36.636 -25.508,-0.001 -46.156,-16.412 -46.156,-36.636 z"
       id="path11"
       inkscape:connector-curvature="0"
       style="fill:#ffffff;fill-rule:evenodd" /></g><g
     id="g13"
     transform="translate(-223.251,-148.827)"><g
       id="g15"><path
         clip-rule="evenodd"
         stroke-miterlimit="10"
         d="m 226.502,271.31 c 0,-1.436 1.209,-2.599 2.726,-2.599 h 5.503 c 1.517,0 2.726,1.163 2.726,2.599 v 25.918 c 0,1.435 -1.209,2.599 -2.726,2.599 h -5.503 c -1.517,0 -2.726,-1.164 -2.726,-2.599 V 271.31 z"
         id="path17"
         inkscape:connector-curvature="0"
         style="fill:none;stroke:#ffffff;stroke-linecap:round;stroke-linejoin:round;stroke-miterlimit:10" /></g><path
       clip-rule="evenodd"
       stroke-miterlimit="10"
       d="m 223.751,253.14 c 0,-4.282 3.678,-7.773 8.229,-7.773 4.552,0 8.228,3.491 8.228,7.773 0,4.307 -3.676,7.797 -8.228,7.797 -4.551,10e-4 -8.229,-3.49 -8.229,-7.797 z"
       id="path19"
       inkscape:connector-curvature="0"
       style="fill:none;stroke:#ffffff;stroke-linecap:round;stroke-linejoin:round;stroke-miterlimit:10" /><g
       id="g21"><path
         clip-rule="evenodd"
         stroke-miterlimit="10"
         d="m 251.188,271.31 c 0,-1.436 1.209,-2.599 2.726,-2.599 h 5.503 c 1.517,0 2.726,1.163 2.726,2.599 v 25.918 c 0,1.435 -1.209,2.599 -2.726,2.599 h -5.503 c -1.517,0 -2.726,-1.164 -2.726,-2.599 V 271.31 z"
         id="path23"
         inkscape:connector-curvature="0"
         style="fill:none;stroke:#ffffff;stroke-linecap:round;stroke-linejoin:round;stroke-miterlimit:10" /></g><path
       clip-rule="evenodd"
       stroke-miterlimit="10"
       d="m 245.866,253.14 c 0,-4.282 3.676,-7.773 8.228,-7.773 4.552,0 8.229,3.491 8.229,7.773 0,4.307 -3.677,7.797 -8.229,7.797 -4.552,10e-4 -8.228,-3.49 -8.228,-7.797 z"
       id="path25"
       inkscape:connector-curvature="0"
       style="fill:none;stroke:#ffffff;stroke-linecap:round;stroke-linejoin:round;stroke-miterlimit:10" /><g
       id="g27"><path
         clip-rule="evenodd"
         stroke-miterlimit="10"
         d="m 277.931,271.31 c 0,-1.436 1.209,-2.599 2.726,-2.599 h 5.503 c 1.517,0 2.726,1.163 2.726,2.599 v 25.918 c 0,1.435 -1.209,2.599 -2.726,2.599 h -5.503 c -1.517,0 -2.726,-1.164 -2.726,-2.599 V 271.31 z"
         id="path29"
         inkscape:connector-curvature="0"
         style="fill:none;stroke:#ffffff;stroke-linecap:round;stroke-linejoin:round;stroke-miterlimit:10" /></g><path
       clip-rule="evenodd"
       stroke-miterlimit="10"
       d="m 275.18,253.14 c 0,-4.282 3.677,-7.773 8.229,-7.773 4.551,0 8.228,3.491 8.228,7.773 0,4.307 -3.676,7.797 -8.228,7.797 -4.552,10e-4 -8.229,-3.49 -8.229,-7.797 z"
       id="path31"
       inkscape:connector-curvature="0"
       style="fill:none;stroke:#ffffff;stroke-linecap:round;stroke-linejoin:round;stroke-miterlimit:10" /><g
       id="g33"><path
         clip-rule="evenodd"
         stroke-miterlimit="10"
         d="m 302.617,271.31 c 0,-1.436 1.209,-2.599 2.726,-2.599 h 5.503 c 1.517,0 2.726,1.163 2.726,2.599 v 25.918 c 0,1.435 -1.209,2.599 -2.726,2.599 h -5.503 c -1.517,0 -2.726,-1.164 -2.726,-2.599 V 271.31 z"
         id="path35"
         inkscape:connector-curvature="0"
         style="fill:none;stroke:#ffffff;stroke-linecap:round;stroke-linejoin:round;stroke-miterlimit:10" /></g><path
       clip-rule="evenodd"
       stroke-miterlimit="10"
       d="m 297.294,253.14 c 0,-4.282 3.676,-7.773 8.228,-7.773 4.551,0 8.229,3.491 8.229,7.773 0,4.307 -3.678,7.797 -8.229,7.797 -4.552,10e-4 -8.228,-3.49 -8.228,-7.797 z"
       id="path37"
       inkscape:connector-curvature="0"
       style="fill:none;stroke:#ffffff;stroke-linecap:round;stroke-linejoin:round;stroke-miterlimit:10" /><g
       id="g39"><path
         clip-rule="evenodd"
         stroke-miterlimit="10"
         d="m 331.931,271.31 c 0,-1.436 1.209,-2.599 2.726,-2.599 h 5.503 c 1.517,0 2.726,1.163 2.726,2.599 v 25.918 c 0,1.435 -1.209,2.599 -2.726,2.599 h -5.503 c -1.517,0 -2.726,-1.164 -2.726,-2.599 V 271.31 z"
         id="path41"
         inkscape:connector-curvature="0"
         style="fill:none;stroke:#ffffff;stroke-linecap:round;stroke-linejoin:round;stroke-miterlimit:10" /></g><path
       clip-rule="evenodd"
       stroke-miterlimit="10"
       d="m 329.18,253.14 c 0,-4.282 3.677,-7.773 8.229,-7.773 4.551,0 8.228,3.491 8.228,7.773 0,4.307 -3.676,7.797 -8.228,7.797 -4.552,10e-4 -8.229,-3.49 -8.229,-7.797 z"
       id="path43"
       inkscape:connector-curvature="0"
       style="fill:none;stroke:#ffffff;stroke-linecap:round;stroke-linejoin:round;stroke-miterlimit:10" /><g
       id="g45"><path
         clip-rule="evenodd"
         stroke-miterlimit="10"
         d="m 356.617,271.31 c 0,-1.436 1.209,-2.599 2.726,-2.599 h 5.503 c 1.517,0 2.726,1.163 2.726,2.599 v 25.918 c 0,1.435 -1.209,2.599 -2.726,2.599 h -5.503 c -1.517,0 -2.726,-1.164 -2.726,-2.599 V 271.31 z"
         id="path47"
         inkscape:connector-curvature="0"
         style="fill:none;stroke:#ffffff;stroke-linecap:round;stroke-linejoin:round;stroke-miterlimit:10" /></g><path
       clip-rule="evenodd"
       stroke-miterlimit="10"
       d="m 351.294,253.14 c 0,-4.282 3.676,-7.773 8.228,-7.773 4.551,0 8.229,3.491 8.229,7.773 0,4.307 -3.678,7.797 -8.229,7.797 -4.552,10e-4 -8.228,-3.49 -8.228,-7.797 z"
       id="path49"
       inkscape:connector-curvature="0"
       style="fill:none;stroke:#ffffff;stroke-linecap:round;stroke-linejoin:round;stroke-miterlimit:10" /></g><g
     id="g51"
     transform="translate(-223.251,-148.827)"><path
       clip-rule="evenodd"
       d="m 282.945,207.048 c 0.925,0.792 2.083,1.188 3.523,1.188 1.337,0 2.494,-0.347 3.445,-1.089 0.977,-0.718 1.671,-1.658 2.032,-2.822 l 6.326,-20.769 h 0.128 l 6.301,20.769 c 0.385,1.164 1.055,2.104 2.031,2.822 0.952,0.742 2.108,1.089 3.445,1.089 1.44,0 2.623,-0.396 3.575,-1.188 0.925,-0.792 1.517,-1.833 1.852,-3.07 l 6.942,-29.902 c 0.129,-0.619 0.206,-1.238 0.206,-1.856 0,-0.916 -0.36,-1.733 -1.08,-2.476 -0.721,-0.718 -1.646,-1.114 -2.829,-1.114 -1.286,0 -2.237,0.347 -2.932,1.04 -0.72,0.694 -1.183,1.658 -1.44,2.946 l -4.628,23.591 h -0.103 l -7.123,-24.333 c -0.309,-0.99 -0.849,-1.783 -1.595,-2.352 -0.822,-0.594 -1.696,-0.891 -2.7,-0.891 -1.003,0 -1.877,0.297 -2.648,0.891 -0.772,0.569 -1.286,1.362 -1.621,2.352 l -7.096,24.333 h -0.129 l -4.653,-23.591 c -0.566,-2.625 -2.006,-3.985 -4.372,-3.985 -1.131,0 -2.108,0.396 -2.829,1.114 -0.719,0.742 -1.08,1.56 -1.08,2.476 0,0.668 0.076,1.287 0.231,1.856 l 6.968,29.902 c 0.285,1.236 0.876,2.277 1.853,3.069 z"
       id="path53"
       inkscape:connector-curvature="0"
       style="fill:#7a4dff;fill-rule:evenodd" /></g></svg>