<?xml version="1.0" encoding="UTF-8" standalone="no"?>
<!-- Generator: Adobe Illustrator 16.0.0, SVG Export Plug-In . SVG Version: 6.00 Build 0)  -->

<svg
   xmlns:dc="http://purl.org/dc/elements/1.1/"
   xmlns:cc="http://creativecommons.org/ns#"
   xmlns:rdf="http://www.w3.org/1999/02/22-rdf-syntax-ns#"
   xmlns:svg="http://www.w3.org/2000/svg"
   xmlns="http://www.w3.org/2000/svg"
   xmlns:sodipodi="http://sodipodi.sourceforge.net/DTD/sodipodi-0.dtd"
   xmlns:inkscape="http://www.inkscape.org/namespaces/inkscape"
   version="1.1"
   id="Layer_1"
   x="0px"
   y="0px"
   width="125.5"
   height="130.5"
   viewBox="0 0 125.5 130.5"
   enable-background="new 0 0 640 480"
   xml:space="preserve"
   inkscape:version="0.48.4 r9939"
   sodipodi:docname="sin_quorum_ico.svg"><metadata
     id="metadata59"><rdf:RDF><cc:Work
         rdf:about=""><dc:format>image/svg+xml</dc:format><dc:type
           rdf:resource="http://purl.org/dc/dcmitype/StillImage" /></cc:Work></rdf:RDF></metadata><defs
     id="defs57" /><sodipodi:namedview
     pagecolor="#ffffff"
     bordercolor="#666666"
     borderopacity="1"
     objecttolerance="10"
     gridtolerance="10"
     guidetolerance="10"
     inkscape:pageopacity="0"
     inkscape:pageshadow="2"
     inkscape:window-width="1215"
     inkscape:window-height="776"
     id="namedview55"
     showgrid="false"
     fit-margin-top="0"
     fit-margin-left="0"
     fit-margin-right="0"
     fit-margin-bottom="0"
     inkscape:zoom="0.49166667"
     inkscape:cx="69.947"
     inkscape:cy="56.966"
     inkscape:window-x="65"
     inkscape:window-y="24"
     inkscape:window-maximized="1"
     inkscape:current-layer="Layer_1" /><g
     id="g3"
     transform="translate(-250.053,-166.466)"><g
       id="g5"><path
         clip-rule="evenodd"
         stroke-miterlimit="10"
         d="m 252.899,272.311 c 0,-1.216 1.031,-2.201 2.325,-2.201 h 4.693 c 1.293,0 2.325,0.985 2.325,2.201 v 21.954 c 0,1.215 -1.031,2.201 -2.325,2.201 h -4.693 c -1.293,0 -2.325,-0.986 -2.325,-2.201 v -21.954 z"
         id="path7"
         inkscape:connector-curvature="0"
         style="fill:none;stroke:#ffffff;stroke-linecap:round;stroke-linejoin:round;stroke-miterlimit:10" /></g><path
       clip-rule="evenodd"
       stroke-miterlimit="10"
       d="m 250.553,256.92 c 0,-3.627 3.136,-6.584 7.018,-6.584 3.881,0 7.017,2.957 7.017,6.584 0,3.648 -3.135,6.604 -7.017,6.604 -3.882,10e-4 -7.018,-2.956 -7.018,-6.604 z"
       id="path9"
       inkscape:connector-curvature="0"
       style="fill:none;stroke:#ffffff;stroke-linecap:round;stroke-linejoin:round;stroke-miterlimit:10" /><g
       id="g11"><path
         clip-rule="evenodd"
         stroke-miterlimit="10"
         d="m 273.952,272.311 c 0,-1.216 1.031,-2.201 2.325,-2.201 h 4.693 c 1.293,0 2.325,0.985 2.325,2.201 v 21.954 c 0,1.215 -1.031,2.201 -2.325,2.201 h -4.693 c -1.293,0 -2.325,-0.986 -2.325,-2.201 v -21.954 z"
         id="path13"
         inkscape:connector-curvature="0"
         style="fill:none;stroke:#ffffff;stroke-linecap:round;stroke-linejoin:round;stroke-miterlimit:10" /></g><path
       clip-rule="evenodd"
       stroke-miterlimit="10"
       d="m 271.605,256.92 c 0,-3.627 3.135,-6.584 7.017,-6.584 3.881,0 7.018,2.957 7.018,6.584 0,3.648 -3.137,6.604 -7.018,6.604 -3.881,10e-4 -7.017,-2.956 -7.017,-6.604 z"
       id="path15"
       inkscape:connector-curvature="0"
       style="fill:none;stroke:#ffffff;stroke-linecap:round;stroke-linejoin:round;stroke-miterlimit:10" /><g
       id="g17"><path
         clip-rule="evenodd"
         stroke-miterlimit="10"
         d="m 296.758,272.311 c 0,-1.216 1.031,-2.201 2.325,-2.201 h 4.693 c 1.293,0 2.325,0.985 2.325,2.201 v 21.954 c 0,1.215 -1.031,2.201 -2.325,2.201 h -4.693 c -1.293,0 -2.325,-0.986 -2.325,-2.201 v -21.954 z"
         id="path19"
         inkscape:connector-curvature="0"
         style="fill:none;stroke:#ffffff;stroke-linecap:round;stroke-linejoin:round;stroke-miterlimit:10" /></g><path
       clip-rule="evenodd"
       stroke-miterlimit="10"
       d="m 294.413,256.92 c 0,-3.627 3.136,-6.584 7.018,-6.584 3.882,0 7.017,2.957 7.017,6.584 0,3.648 -3.135,6.604 -7.017,6.604 -3.882,10e-4 -7.018,-2.956 -7.018,-6.604 z"
       id="path21"
       inkscape:connector-curvature="0"
       style="fill:none;stroke:#ffffff;stroke-linecap:round;stroke-linejoin:round;stroke-miterlimit:10" /><g
       id="g23"><path
         clip-rule="evenodd"
         d="m 317.812,272.311 c 0,-1.216 1.031,-2.201 2.325,-2.201 h 4.693 c 1.294,0 2.325,0.985 2.325,2.201 v 21.954 c 0,1.215 -1.031,2.201 -2.325,2.201 h -4.693 c -1.294,0 -2.325,-0.986 -2.325,-2.201 v -21.954 z"
         id="path25"
         inkscape:connector-curvature="0"
         style="fill:#ffffff;fill-rule:evenodd" /></g><path
       clip-rule="evenodd"
       d="m 315.465,256.92 c 0,-3.627 3.135,-6.584 7.017,-6.584 3.882,0 7.018,2.957 7.018,6.584 0,3.648 -3.136,6.604 -7.018,6.604 -3.881,10e-4 -7.017,-2.956 -7.017,-6.604 z"
       id="path27"
       inkscape:connector-curvature="0"
       style="fill:#ffffff;fill-rule:evenodd" /><g
       id="g29"><path
         clip-rule="evenodd"
         d="m 342.811,272.311 c 0,-1.216 1.031,-2.201 2.325,-2.201 h 4.693 c 1.293,0 2.325,0.985 2.325,2.201 v 21.954 c 0,1.215 -1.031,2.201 -2.325,2.201 h -4.693 c -1.293,0 -2.325,-0.986 -2.325,-2.201 v -21.954 z"
         id="path31"
         inkscape:connector-curvature="0"
         style="fill:#ffffff;fill-rule:evenodd" /></g><path
       clip-rule="evenodd"
       d="m 340.465,256.92 c 0,-3.627 3.137,-6.584 7.018,-6.584 3.882,0 7.017,2.957 7.017,6.584 0,3.648 -3.135,6.604 -7.017,6.604 -3.881,10e-4 -7.018,-2.956 -7.018,-6.604 z"
       id="path33"
       inkscape:connector-curvature="0"
       style="fill:#ffffff;fill-rule:evenodd" /><g
       id="g35"><path
         clip-rule="evenodd"
         d="m 363.864,272.311 c 0,-1.216 1.031,-2.201 2.325,-2.201 h 4.693 c 1.293,0 2.325,0.985 2.325,2.201 v 21.954 c 0,1.215 -1.031,2.201 -2.325,2.201 h -4.693 c -1.293,0 -2.325,-0.986 -2.325,-2.201 v -21.954 z"
         id="path37"
         inkscape:connector-curvature="0"
         style="fill:#ffffff;fill-rule:evenodd" /></g><path
       clip-rule="evenodd"
       d="m 361.518,256.92 c 0,-3.627 3.135,-6.584 7.017,-6.584 3.882,0 7.018,2.957 7.018,6.584 0,3.648 -3.136,6.604 -7.018,6.604 -3.882,10e-4 -7.017,-2.956 -7.017,-6.604 z"
       id="path39"
       inkscape:connector-curvature="0"
       style="fill:#ffffff;fill-rule:evenodd" /></g><g
     id="g41"
     transform="translate(-250.053,-166.466)"><g
       id="g43"><path
         clip-rule="evenodd"
         d="m 351.035,187.664 c 1.864,3.523 2.676,7.254 2.588,11.155 -0.22,8.45 -4.058,15.306 -10.768,20.8 -0.965,0.776 -1.315,1.551 -1.228,2.747 0.351,4.382 0.878,8.722 2.873,12.769 0.066,0.126 0.066,0.272 0.11,0.398 -0.439,0.23 -0.768,-0.042 -1.096,-0.167 -5,-1.677 -9.759,-3.816 -14.102,-6.709 -0.701,-0.461 -1.316,-0.587 -2.193,-0.356 -4.254,1.089 -8.552,1.971 -12.982,2.222 -6.294,0.357 -12.478,-0.314 -18.508,-1.971 -1.624,-0.44 -2.852,-0.292 -4.277,0.63 -4.451,2.872 -9.298,4.969 -14.518,6.333 -0.241,0.062 -0.526,0.292 -0.723,0.02 -0.198,-0.23 0.021,-0.482 0.153,-0.67 0.417,-0.755 0.833,-1.531 1.316,-2.244 2.214,-3.333 3.091,-7.003 3.29,-10.861 0.044,-0.587 -0.22,-0.944 -0.636,-1.3 -1.711,-1.468 -3.509,-2.851 -5.088,-4.445 -5.021,-5.116 -7.324,-11.26 -7.148,-18.179 0.219,-8.135 4.057,-14.719 10.307,-20.15 7.105,-6.186 15.68,-9.519 25.241,-10.735 8.553,-1.091 16.908,-0.314 25.044,2.433 0.46,0.167 0.965,0.25 1.338,0.566 -0.592,0.461 -1.14,0.021 -1.711,-0.105 -0.352,-0.084 -0.724,-0.335 -0.943,0.168 -0.263,0.608 -0.833,0.629 -1.425,0.67 -1.206,0.084 -2.434,-0.125 -3.596,0.357 -1.207,0.084 -2.325,-0.336 -3.509,-0.42 -0.592,-0.209 -1.25,-0.084 -1.864,-0.23 -0.724,-0.21 -1.491,-0.084 -2.259,-0.126 -0.306,0 -0.635,-0.021 -0.965,-0.084 -1.271,-0.23 -2.543,-0.146 -3.837,0.021 -0.438,0.084 -0.898,0.063 -1.359,0.063 -1.667,-0.042 -3.29,0.335 -4.913,0.608 -1.36,0.146 -2.697,0.503 -4.013,0.859 -0.438,0.105 -0.877,0.273 -1.316,0.378 -0.548,0.042 -1.074,0.23 -1.578,0.44 -1.316,0.356 -2.522,0.922 -3.772,1.447 -0.35,0.105 -0.68,0.209 -0.986,0.419 -0.176,0.104 -0.351,0.21 -0.548,0.272 -0.877,0.314 -1.711,0.712 -2.5,1.216 -0.833,0.378 -1.601,0.86 -2.368,1.363 -1.908,1.132 -3.662,2.453 -5.526,3.941 0.812,0.357 1.513,0.21 2.149,0.273 4.21,0.44 8.443,0.859 12.588,1.635 0.306,0.063 0.613,0.042 0.898,0.084 2.61,0.461 5.176,1.006 7.719,1.719 l 0.33,0.084 c 0.942,0.336 1.93,0.504 2.851,0.818 l 0.768,0.252 c 0.46,0.146 0.921,0.294 1.381,0.419 0.68,0.231 1.36,0.419 2.04,0.65 4.363,1.552 8.552,3.481 12.478,5.85 0.812,0.504 1.798,0.838 2.214,1.762 -0.132,0.796 -0.768,1.279 -1.229,1.865 -0.921,1.132 -0.833,2.495 0.22,3.061 0.483,0.252 1.009,0.44 1.58,0.566 2.017,0.063 4.057,-0.063 6.074,0.084 1.141,0.461 1.82,1.384 2.522,2.286 1.536,1.803 2.741,3.794 3.925,5.807 0.768,1.51 1.404,3.062 1.886,4.655 0.197,0.692 0.439,0.712 0.943,0.23 0.658,-0.629 1.229,-1.341 1.754,-2.076 0.066,-0.125 0.176,-0.23 0.285,-0.335 0.33,-0.23 0.527,-0.545 0.658,-0.902 0.438,-0.565 0.942,-1.111 1.206,-1.803 0.307,-0.566 0.68,-1.111 0.833,-1.761 0.395,-0.923 0.987,-1.783 1.163,-2.789 0.373,-1.342 0.833,-2.684 0.79,-4.089 0.154,-1.299 0.483,-2.599 0.131,-3.899 -0.065,-0.356 -0.087,-0.692 0.088,-1.006 0.504,-0.23 0.329,-0.65 0.351,-1.006 0.088,-1.384 0,-2.768 0.132,-4.13 0.065,-0.608 0.153,-1.132 1.009,-1.174 0.412,-0.024 -0.224,-0.568 0.258,-0.673 z"
         id="path45"
         inkscape:connector-curvature="0"
         style="fill:#ffffff;fill-rule:evenodd" /><path
         clip-rule="evenodd"
         d="m 274.895,197.477 c 0,-17.13 17.609,-31.011 39.363,-31.011 21.733,0 39.365,13.881 39.365,31.011 0,17.131 -17.632,31.032 -39.365,31.032 -21.754,0 -39.363,-13.902 -39.363,-31.032 z"
         id="path47"
         inkscape:connector-curvature="0"
         style="fill:#ffffff;fill-rule:evenodd" /></g><path
       clip-rule="evenodd"
       d="m 274.895,197.477 c 0,-17.13 17.609,-31.011 39.363,-31.011 21.733,0 39.365,13.881 39.365,31.011 0,17.131 -17.632,31.032 -39.365,31.032 -21.754,0 -39.363,-13.902 -39.363,-31.032 z"
       id="path49"
       inkscape:connector-curvature="0"
       style="fill:#ffffff;fill-rule:evenodd" /></g><g
     id="g51"
     transform="translate(-250.053,-166.466)"><path
       clip-rule="evenodd"
       d="m 315.093,201.524 c -0.044,0.398 -0.483,0.712 -1.009,0.712 h -5.526 c -0.571,0 -1.009,-0.314 -1.009,-0.712 l -0.505,-17.865 c 0,-0.21 0.088,-0.399 0.286,-0.524 0.176,-0.126 0.461,-0.231 0.724,-0.231 h 6.557 c 0.263,0 0.548,0.105 0.724,0.231 0.197,0.125 0.285,0.314 0.285,0.524 l -0.527,17.865 z m 0.065,10.252 c 0,0.629 -0.439,1.154 -0.943,1.154 h -5.723 c -0.526,0 -0.986,-0.524 -0.986,-1.154 v -6.563 c 0,-0.629 0.46,-1.132 0.986,-1.132 h 5.723 c 0.504,0 0.943,0.503 0.943,1.132 v 6.563 z m -3.838,-36.588 c -12.631,0 -22.895,10.253 -22.895,22.457 0,12.245 10.263,23.001 22.895,23.001 12.653,0 22.895,-10.756 22.895,-23.001 0,-12.204 -10.241,-22.457 -22.895,-22.457 z"
       id="path53"
       inkscape:connector-curvature="0"
       style="fill:#e65b46;fill-rule:evenodd" /></g></svg>