<?xml version="1.0" encoding="utf-8"?>
<!-- Generator: Adobe Illustrator 16.0.0, SVG Export Plug-In . SVG Version: 6.00 Build 0)  -->
<!DOCTYPE svg PUBLIC "-//W3C//DTD SVG 1.1//EN" "http://www.w3.org/Graphics/SVG/1.1/DTD/svg11.dtd">
<svg version="1.1" id="Capa_1" xmlns="http://www.w3.org/2000/svg" xmlns:xlink="http://www.w3.org/1999/xlink" x="0px" y="0px"
	 width="30px" height="30px" viewBox="0 0 30 30" enable-background="new 0 0 30 30" xml:space="preserve">
<path fill="#FFFFFF" d="M25.46,9C24.689,9.35,23.859,9.58,23,9.69c0.88-0.53,1.561-1.37,1.88-2.38c-0.83,0.5-1.75,0.85-2.72,1.05
	C21.37,7.5,20.26,7,19,7c-2.35,0-4.27,1.92-4.27,4.29c0,0.34,0.04,0.67,0.11,0.98C11.28,12.09,8.11,10.38,6,7.79
	C5.63,8.42,5.42,9.16,5.42,9.94c0,1.49,0.75,2.81,1.91,3.56c-0.71,0-1.37-0.2-1.95-0.5c0,0,0,0,0,0.03c0,2.08,1.48,3.82,3.44,4.21
	c-0.36,0.1-0.74,0.15-1.13,0.15c-0.27,0-0.54-0.031-0.8-0.08C7.43,19,9,20.26,10.89,20.29c-1.46,1.16-3.31,1.84-5.33,1.84
	c-0.34,0-0.68-0.021-1.02-0.06C6.44,23.29,8.7,24,11.12,24c7.88,0,12.21-6.54,12.21-12.21c0-0.19,0-0.37-0.01-0.56
	C24.16,10.63,24.88,9.87,25.46,9z"/>
</svg>
