<?xml version="1.0" encoding="utf-8"?>
<!-- Generator: Adobe Illustrator 16.0.0, SVG Export Plug-In . SVG Version: 6.00 Build 0)  -->
<!DOCTYPE svg PUBLIC "-//W3C//DTD SVG 1.1//EN" "http://www.w3.org/Graphics/SVG/1.1/DTD/svg11.dtd">
<svg version="1.1" id="Layer_1" xmlns="http://www.w3.org/2000/svg" xmlns:xlink="http://www.w3.org/1999/xlink" x="0px" y="0px"
	 width="320.833px" height="196.667px" viewBox="0 0 320.833 196.667" enable-background="new 0 0 320.833 196.667"
	 xml:space="preserve">
<g>
	<path opacity="0.2" fill-rule="evenodd" clip-rule="evenodd" fill="#FFFFFF" d="M316.167,179.928c0,6.627-5.074,12-11.333,12
		H15.833c-6.259,0-11.333-5.373-11.333-12v-163.5c0-6.627,5.074-12,11.333-12h289.001c6.259,0,11.333,5.373,11.333,12V179.928z"/>
	<path fill-rule="evenodd" clip-rule="evenodd" fill="#FFFFFF" d="M159.337,162.393c-12.161,0-24.322,0.022-36.482-0.008
		c-9.994-0.024-15.496-5.445-15.524-15.368c-0.045-15.492-0.05-30.985,0.002-46.478c0.032-9.611,5.564-14.999,15.292-15.074
		c0.667-0.005,1.35-0.098,1.997,0.013c6.212,1.066,10.225-0.632,11.883-7.483c1.058-4.371,5.093-6.452,9.668-6.5
		c8.828-0.092,17.659-0.105,26.486-0.003c6.02,0.07,9.542,3.563,10.979,9.105c1.007,3.881,3.013,5.578,7.077,4.916
		c1.785-0.291,3.656-0.057,5.489-0.047c10.021,0.054,15.442,5.406,15.468,15.398c0.039,15.326,0.039,30.652-0.002,45.978
		c-0.025,10.211-5.477,15.529-15.85,15.546C183.659,162.408,171.498,162.393,159.337,162.393z M159.581,99.394
		c-13.806-0.01-24.912,10.945-24.894,24.555c0.018,13.373,11.085,24.453,24.484,24.514c13.844,0.063,25.002-10.751,25.139-24.359
		C184.447,110.512,173.33,99.404,159.581,99.394z"/>
	<path fill-rule="evenodd" clip-rule="evenodd" fill="#FFFFFF" d="M159.386,139.413c-8.738-0.031-15.298-6.741-15.271-15.621
		c0.026-8.808,6.66-15.38,15.506-15.36c8.778,0.02,15.336,6.721,15.265,15.598C174.814,132.885,168.205,139.446,159.386,139.413z"/>
	<g>
		<path fill-rule="evenodd" clip-rule="evenodd" fill="#FFFFFF" d="M151.735,39.618c-2.071,2.574-4.086,5.195-6.228,7.71
			c-2.319,2.724-4.814,3.286-7.651,0.534c-2.749-2.666-3.301-5.119-0.29-8.051c6.201-6.035,12.319-12.159,18.35-18.364
			c2.576-2.65,4.756-2.41,7.203,0.07c6.079,6.159,12.187,12.292,18.36,18.355c2.73,2.683,2.577,5.017-0.091,7.661
			c-2.633,2.609-5.09,2.959-7.682,0.15c-2.326-2.521-4.594-5.096-6.887-7.646c-0.512,0.265-1.022,0.529-1.533,0.795
			c0,6.052-0.145,12.108,0.049,18.154c0.137,4.329-1.289,6.444-5.975,6.436c-4.854-0.008-5.868-2.465-5.732-6.638
			c0.193-5.942,0.049-11.896,0.049-17.845C153.03,40.499,152.382,40.058,151.735,39.618z"/>
	</g>
</g>
</svg>
