<?xml version="1.0" encoding="utf-8"?>
<!-- Generator: Adobe Illustrator 16.0.0, SVG Export Plug-In . SVG Version: 6.00 Build 0)  -->
<!DOCTYPE svg PUBLIC "-//W3C//DTD SVG 1.1//EN" "http://www.w3.org/Graphics/SVG/1.1/DTD/svg11.dtd">
<svg version="1.1" id="Capa_1" xmlns="http://www.w3.org/2000/svg" xmlns:xlink="http://www.w3.org/1999/xlink" x="0px" y="0px"
	 width="30px" height="30px" viewBox="0 0 30 30" enable-background="new 0 0 30 30" xml:space="preserve">
<path id="path5" inkscape:connector-curvature="0" fill="#FFFFFF" d="M11.022,17.064c0.331-1.25,0.659-2.502,0.994-3.75
	c0.271-1.004,0.521-2.015,0.83-3.001c0.324-1.036,0.95-1.535,1.795-1.536c0.789,0,1.427,0.515,1.729,1.557
	c0.561,1.927,1.063,3.877,1.6,5.817c0.08,0.29,0.106,0.607,0.339,0.932c0.369-1.466,0.716-2.87,1.079-4.268
	c0.248-0.963,0.426-1.955,0.793-2.873c0.34-0.844,0.924-1.228,1.688-1.201c0.757,0.028,1.339,0.446,1.679,1.266
	c0.23,0.551,0.22,1.146,0.065,1.708c-0.976,3.535-2.018,7.046-3.104,10.535c-0.205,0.661-0.538,1.241-1.047,1.637
	c-1.15,0.894-2.566,0.351-3.106-1.271c-0.52-1.562-0.941-3.17-1.405-4.758c-0.09-0.306-0.187-0.609-0.401-0.908
	c-0.322,1.182-0.65,2.363-0.969,3.545c-0.209,0.768-0.412,1.537-0.714,2.265c-0.401,0.97-1.041,1.545-1.966,1.534
	c-0.921-0.012-1.563-0.605-1.967-1.555c-0.467-1.104-0.736-2.303-1.087-3.461c-0.686-2.256-1.343-4.521-2.001-6.789
	c-0.122-0.421-0.232-0.858-0.283-1.299C5.437,10.03,5.921,9.178,6.861,8.843C7.78,8.514,8.62,8.92,9.036,9.964
	c0.486,1.223,0.701,2.556,1.043,3.836c0.289,1.08,0.552,2.168,0.825,3.254C10.944,17.057,10.984,17.062,11.022,17.064"/>
</svg>
